<?xml version="1.0" encoding="UTF-8"?>
<svg width="509px" height="430px" viewBox="0 0 509 430" version="1.1" xmlns="http://www.w3.org/2000/svg" xmlns:xlink="http://www.w3.org/1999/xlink">
    <title>89446447-2400-470A-9798-D661A6CABE9A</title>
    <g id="Page-1" stroke="none" stroke-width="1" fill="none" fill-rule="evenodd">
        <g id="04_AIA_Homepage_Desktop_08.09.20-Copy-2" transform="translate(-92.000000, -2980.000000)" fill-rule="nonzero">
            <g id="Group" transform="translate(92.324324, 2980.000000)">
                <circle id="Oval" fill="#F6F6F6" cx="224.886703" cy="200.066197" r="163.535366"></circle>
                <circle id="Oval" fill="#E7F1F9" cx="224.886703" cy="200.066197" r="126.363832"></circle>
                <circle id="Oval" fill="#DEEBF8" cx="224.886703" cy="200.066197" r="90.1506608"></circle>
                <path d="M271.808765,292.532003 C269.935113,282.959148 262.413584,275.109192 254.472099,272.869424 C249.217259,271.388808 244.323151,271.216519 242.277209,256.841085 C239.542108,237.646919 231.681383,229.829268 230.055398,228.38634 C228.424029,226.943413 219.626478,219.098841 202.187516,216.056848 C184.748553,213.014856 174.804199,223.745283 173.011308,226.948797 C171.218416,230.152311 168.289489,237.097745 162.560852,239.43981 C157.995171,241.308078 150.473642,244.64081 147.765461,255.247404 C145.138041,265.514802 151.615063,275.028431 152.31499,281.23625 C152.664954,284.326699 151.51815,288.951604 149.466824,291.552104 C146.268693,295.6063 143.549744,300.521944 143.71665,305.965226 C143.878172,311.408509 147.754693,316.151863 147.103222,321.277486 C146.451751,326.403109 146.451751,326.080066 141.724549,333.127797 C136.997346,340.175529 142.359868,347.831658 142.359868,347.831658 L236.257832,352.348883 C236.257832,352.348883 224.6175,388.895866 256.771092,377.298606 C259.60849,376.275635 272.83712,372.226824 278.205025,360.123462 C282.991453,349.328427 280.240199,335.195275 275.211489,326.31158 C272.799431,322.047407 267.9807,318.946189 269.29441,312.05998 C270.188164,307.327393 273.677033,302.099473 271.808765,292.532003 Z" id="Path" fill="#333333"></path>
                <path d="M160.11649,324.960182 C160.11649,324.960182 153.607164,327.910645 139.694759,352.461948 C125.782354,377.013251 121.878912,383.291062 121.878912,383.291062 L125.40547,414.147096 L131.785578,416.273799 C131.785578,416.273799 151.91657,393.854583 155.518504,386.160765 C159.120439,378.466946 160.11649,324.960182 160.11649,324.960182 Z" id="Path" fill="#3B88C1"></path>
                <path d="M159.820366,324.960182 C147.200135,335.496782 135.522114,360.931071 122.55192,382.181946 C122.55192,382.181946 125.766202,422.95003 131.957868,416.026132 C135.31752,412.26806 145.035744,401.112293 149.213773,395.529025 C150.715925,393.520771 155.157772,387.463707 155.157772,387.463707 L167.148069,376.636367 C167.148069,376.636367 165.952808,319.839943 159.820366,324.960182 Z" id="Path" fill="#367DA9"></path>
                <path d="M258.138643,413.291031 L154.88857,413.291031 C154.88857,413.291031 154.88857,402.819039 154.88857,399.023278 C154.88857,395.227518 152.901852,394.32838 148.104657,387.673685 C143.307462,381.01899 145.197266,373.594374 145.681831,368.377222 C146.166396,363.160071 156.223816,331.582573 157.645207,327.318399 C159.066598,323.054225 181.765785,314.682016 181.765785,314.682016 L212.099566,314.682016 C212.099566,314.682016 231.708304,321.288254 238.686042,326.13929 C238.686042,326.13929 252.388469,334.516884 254.687462,349.333811 C254.682078,349.333811 258.138643,371.796099 258.138643,413.291031 Z" id="Path" fill="#3F8ABF"></path>
                <path d="M230.604572,334.274601 C230.604572,334.274601 225.473565,336.945094 212.815646,359.681969 C200.157726,382.418845 195.25285,391.361764 195.25285,391.361764 L193.341509,413.317951 L206.327856,413.317951 C208.174588,413.317951 209.935175,412.585719 211.232733,411.272009 C221.037102,401.333039 255.398157,353.140339 252.006201,347.201724 C243.887042,333.014732 230.604572,334.274601 230.604572,334.274601 Z" id="Path" fill="#367DA9"></path>
                <g transform="translate(181.442742, 298.276792)">
                    <path d="M0.969130372,9.35210809 C0.969130372,9.35210809 2.97738386,14.5369556 0.484565186,18.5426944 C0.484565186,18.5426944 -2.00825349,32.1589762 12.4963977,32.3366501 C27.001049,32.514324 31.3621356,25.3965998 30.65144,16.4052236 C30.65144,16.4052236 27.6255996,9.10982549 29.3161937,0.473797071 L0.969130372,9.35210809 Z" id="Path" fill="#FFFFFF"></path>
                    <path d="M13.0240354,32.611237 C12.8463615,32.611237 12.6740716,32.611237 12.4963977,32.6058529 C8.0168618,32.5520124 4.67874607,31.2221501 2.56281143,28.6593387 C-0.839912989,24.5297665 0.172289844,18.7419046 0.220746362,18.4942379 L0.258434766,18.4027089 C2.64895635,14.5638759 0.737615894,9.49747764 0.721463721,9.44902112 L0.619166626,9.17981824 L0.893753565,9.09367332 L29.6769256,0.0861449219 L29.5907807,0.527637647 C27.937875,8.97522405 30.8829545,16.2329337 30.9098748,16.3029265 L30.931411,16.3836873 C31.3136791,21.2347233 30.2153314,25.0843245 27.657904,27.8140417 C24.6751361,30.9960197 19.7541074,32.611237 13.0240354,32.611237 Z M0.742999952,18.6396075 C0.651470972,19.2049335 -0.102297095,24.578223 2.98276792,28.3201431 C4.99102141,30.7537371 8.1945357,32.0189907 12.5017818,32.0674472 C19.344919,32.142824 24.3090202,30.5975995 27.2540997,27.4479257 C29.6984618,24.8366578 30.7483531,21.1431943 30.3876212,16.4698323 C30.1507227,15.8722019 27.5286866,8.95907188 28.9716141,0.866833277 L1.31909412,9.52439793 C1.70136221,10.6604341 2.93969546,15.0538251 0.742999952,18.6396075 Z" id="Shape" fill="#858585"></path>
                </g>
                <g transform="translate(164.213757, 233.668101)">
                    <path d="M3.53732586,15.1453541 C3.53732586,15.1453541 0.107681152,31.0283241 0.436108667,41.0695915 C0.850681104,53.7921197 8.02224585,67.1715029 15.2207309,72.2863576 C19.4472161,75.2906618 30.5437589,79.517147 42.0548741,68.6359665 C53.2375617,58.0670614 56.8394963,44.7199826 56.8394963,44.7199826 L60.6729453,18.2519553 L50.4486199,6.20243438 L13.3901513,0.54378982 L3.53732586,15.1453541 Z" id="Path" fill="#FFFFFF"></path>
                    <path d="M26.2795852,75.9367487 C20.184832,75.9367487 15.8398975,73.0616619 15.0592092,72.507104 C8.07608643,67.5483869 0.592246338,54.4328225 0.161521729,41.0803596 C-0.161521729,31.119853 3.23581863,15.2530352 3.26812298,15.0915135 C3.27350703,15.0592092 3.28965921,15.0269048 3.30581138,14.9999845 L13.1640209,0.398420264 C13.2232455,0.312275342 13.3255426,0.263818823 13.4278397,0.285355054 L50.4863083,5.94399961 C50.550917,5.95476773 50.6101416,5.98707207 50.6532141,6.03552859 L60.8775395,18.0850495 C60.925996,18.1442742 60.9475323,18.219651 60.9367641,18.2950278 L57.1033151,44.7630551 C57.0602427,44.9299608 53.3452429,58.3362643 42.232548,68.8351767 C36.444686,74.3053792 30.8668023,75.9367487 26.2795852,75.9367487 Z M3.79037656,15.2530352 C3.58039832,16.2490859 0.393036206,31.4482806 0.705311548,41.0588234 C1.03373906,51.1916199 6.73545608,65.9277856 15.3768686,72.0656112 C16.7013467,73.0078213 28.6916431,80.8954657 41.8718161,68.4367564 C52.8714458,58.0401411 56.5487572,44.7792072 56.5810615,44.6499898 L60.3929743,18.3327162 L50.3140185,6.45548509 L13.5247527,0.839912989 L3.79037656,15.2530352 Z" id="Shape" fill="#878787"></path>
                </g>
                <path d="M167.751083,247.219774 C167.751083,247.219774 182.234198,260.146896 194.757516,264.195707 C207.280834,268.244519 212.998704,271.259591 215.706884,273.472439 C218.415065,275.69067 220.880964,282.835315 220.880964,282.835315 L233.695021,254.00907 L227.530275,235.283318 L204.615726,230.356905 L181.45351,227.648724 L173.57125,234.055753 L167.751083,247.219774 Z" id="Path" fill="#333333"></path>
                <g transform="translate(11.844927, 333.811572)">
                    <polygon id="Path" fill="#FFFFFF" points="0.425340552 4.92641272 5.38405762 0.613782569 100.547276 0.613782569 96.1431169 5.85247063"></polygon>
                    <path d="M96.1431169,6.12167351 C96.1431169,6.12167351 96.1431169,6.12167351 96.1431169,6.12167351 L0.419956494,5.20099966 C0.306891284,5.20099966 0.209978247,5.13100691 0.172289844,5.02332576 C0.134601441,4.92102866 0.161521729,4.8025794 0.247666651,4.72720259 L5.20638372,0.414572437 C5.25484024,0.371499976 5.31944893,0.349963745 5.38405762,0.349963745 L100.547276,0.349963745 C100.649573,0.349963745 100.746486,0.409188379 100.789559,0.506101416 C100.832631,0.603014453 100.816479,0.710695606 100.75187,0.79145647 L96.3477111,6.03014453 C96.2992546,6.08398511 96.2238778,6.12167351 96.1431169,6.12167351 Z M1.13603616,4.66797796 L96.0192836,5.58326775 L99.9657978,0.88298545 L5.48635471,0.88298545 L1.13603616,4.66797796 Z" id="Shape" fill="#878787"></path>
                </g>
                <g transform="translate(107.681152, 333.811572)">
                    <polygon id="Path" fill="#FFFFFF" points="4.71105042 0.613782569 18.1227379 74.569198 65.7608798 74.569198 65.7608798 80.3355237 9.73976023 80.3355237 0.306891284 5.85247063"></polygon>
                    <path d="M65.7608798,80.6047266 L9.73976023,80.6047266 C9.60515879,80.6047266 9.49209358,80.5024295 9.47055735,80.3678281 L0.043072461,5.88477498 C0.0323043457,5.80939817 0.0538405762,5.73402137 0.102297095,5.68018079 L4.50645623,0.441492725 C4.57644898,0.360731861 4.68413013,0.328427515 4.78104317,0.355347803 C4.88334026,0.382268091 4.95871707,0.463028955 4.97486924,0.56532605 L18.3488684,74.2999952 L65.7608798,74.2999952 C65.9116334,74.2999952 66.0300827,74.4184444 66.0300827,74.569198 L66.0300827,80.3355237 C66.0300827,80.4862774 65.9116334,80.6047266 65.7608798,80.6047266 Z M9.97665877,80.0663209 L65.4916769,80.0663209 L65.4916769,74.8384009 L18.1227379,74.8384009 C17.9935206,74.8384009 17.8804554,74.7468719 17.8589191,74.6176546 L4.54952869,1.22756514 L0.592246338,5.93861555 L9.97665877,80.0663209 Z" id="Shape" fill="#878787"></path>
                </g>
                <g transform="translate(11.844927, 338.118819)">
                    <polygon id="Path" fill="#FFFFFF" points="109.118696 76.0282777 15.7052961 76.0282777 0.425340552 0.619166626 96.5307691 0.619166626"></polygon>
                    <path d="M109.118696,76.2974805 L15.7052961,76.2974805 C15.5760787,76.2974805 15.4683975,76.2059516 15.4414773,76.0821182 L0.161521729,0.673007203 C0.145369556,0.592246338 0.166905786,0.511485474 0.215362305,0.446876782 C0.269202881,0.382268091 0.344579688,0.349963745 0.425340552,0.349963745 L96.5307691,0.349963745 C96.6599865,0.349963745 96.7730517,0.446876782 96.7945879,0.576094165 L109.382515,75.9852052 C109.393283,76.060582 109.371746,76.1413429 109.32329,76.2059516 C109.274833,76.2651762 109.199457,76.2974805 109.118696,76.2974805 Z M15.9260424,75.7590748 L108.801036,75.7590748 L96.3046387,0.888369507 L0.753768067,0.888369507 L15.9260424,75.7590748 Z" id="Shape" fill="#878787"></path>
                </g>
                <path d="M223.066891,329.105906 C223.066891,329.105906 217.935884,331.776399 205.277965,354.513274 C192.620045,377.250149 187.715169,386.193069 187.715169,386.193069 L187.219836,405.89872 L199.996204,411.105104 C199.996204,411.105104 255.845034,353.926412 252.000817,347.207108 C243.887042,333.014732 223.066891,329.105906 223.066891,329.105906 Z" id="Path" fill="#3F8ABF"></path>
                <g transform="translate(0.000000, 413.495625)">
                    <path d="M504.820011,15.3822526 L2.64895635,15.3822526 C1.52368831,15.3822526 0.608398511,14.4669628 0.608398511,13.3416948 L0.608398511,2.69202881 C0.608398511,1.56676077 1.52368831,0.651470972 2.64895635,0.651470972 L504.820011,0.651470972 C505.945279,0.651470972 506.860592,1.56676077 506.860592,2.69202881 L506.860592,13.3363107 C506.865952,14.4669628 505.950663,15.3822526 504.820011,15.3822526 Z" id="Path" fill="#FFFFFF"></path>
                    <path d="M504.820011,15.6514555 L2.64895635,15.6514555 C1.37293469,15.6514555 0.33919563,14.6123324 0.33919563,13.3416948 L0.33919563,2.69202881 C0.33919563,1.41600715 1.37831875,0.382268091 2.64895635,0.382268091 L504.820011,0.382268091 C506.096032,0.382268091 507.129792,1.42139121 507.129792,2.69202881 L507.129792,13.3363107 C507.135155,14.6123324 506.096032,15.6514555 504.820011,15.6514555 Z M2.65434041,0.920673853 C1.67444192,0.920673853 0.88298545,1.71751438 0.88298545,2.69202881 L0.88298545,13.3363107 C0.88298545,14.3162092 1.67982598,15.1076657 2.65434041,15.1076657 L504.825395,15.1076657 C505.805293,15.1076657 506.59675,14.3108252 506.59675,13.3363107 L506.59675,2.69202881 C506.59675,1.71213032 505.799909,0.920673853 504.825395,0.920673853 L2.65434041,0.920673853 Z" id="Shape" fill="#878787"></path>
                </g>
                <path d="M230.976072,281.640054 L219.707239,267.162323 C219.335739,266.688526 218.651964,266.602381 218.178167,266.973881 L187.612872,290.766032 C187.139075,291.137532 187.05293,291.821307 187.42443,292.295104 L198.693262,306.772835 C199.064762,307.246632 199.748538,307.332777 200.222335,306.961277 L230.78763,283.169126 C231.261427,282.797626 231.347572,282.113851 230.976072,281.640054 Z" id="Path" fill="#F8B3C0"></path>
                <g transform="translate(179.827525, 272.433316)">
                    <path d="M23.0329985,31.1575414 C19.7917958,41.769519 0.290739111,110.637 0.290739111,110.637 C0.290739111,110.637 6.33703582,112.332978 13.0994122,112.058391 C19.1080205,111.816109 26.0803751,109.748631 26.0803751,109.748631 L37.6076425,24.1528825 C37.5861062,24.1636506 37.56457,24.1744187 37.5430338,24.1905709 C37.5699541,24.0452013 37.6022584,23.8998318 37.6022584,23.7436941 C37.559186,19.5656654 37.3222874,8.46912264 35.9439687,6.01399236 C34.2372224,2.97199981 32.2020486,-0.156137671 27.0441214,0.533021704 C23.3345057,1.02835501 17.471267,6.53624595 14.4723469,9.58900662 C13.4170716,10.6658181 13.5086006,12.3994847 14.6554048,13.3793832 L18.316564,16.4967525 C18.7311365,16.8467163 19.0218756,17.3205134 19.151093,17.848151 C19.156477,17.842767 20.5186436,26.6026287 23.0329985,31.1575414 Z" id="Path" fill="#FFFFFF"></path>
                    <path d="M11.6187963,112.359898 C5.50789095,112.359898 0.274586939,110.911587 0.220746362,110.895435 C0.150753613,110.873899 0.0915289795,110.830826 0.0592246338,110.766217 C0.0269202881,110.701609 0.0161521729,110.631616 0.0376884033,110.561623 C0.231514478,109.877848 19.4472161,42.0333378 22.7476434,31.1844617 C20.2709769,26.6187809 18.9464988,18.2411872 18.8926582,17.8858394 C18.779593,17.4335786 18.5211582,17.0136221 18.1496582,16.6959627 L14.4884991,13.5785933 C13.8801005,13.0617238 13.5139846,12.3079557 13.4762962,11.5164992 C13.4386078,10.7196587 13.7293469,9.96589065 14.2892889,9.39518055 C17.4281945,6.19705032 23.2537449,0.764536182 27.0172011,0.263818823 C32.1912805,-0.425340552 34.3072152,2.52512302 36.1862513,5.88477498 C37.5807222,8.36682554 37.8337729,19.1995495 37.8768454,23.7436941 C37.8768454,23.8459912 37.8660772,23.9429042 37.8499251,24.0344332 C37.8768454,24.0828897 37.8876135,24.1313463 37.8822294,24.1905709 L26.3549621,109.786319 C26.3388099,109.894 26.2688171,109.980145 26.16652,110.007065 C26.0965273,110.028602 19.0918683,112.085312 13.1155644,112.327594 C12.6094629,112.34913 12.1141296,112.359898 11.6187963,112.359898 Z M0.629934742,110.443174 C1.85749988,110.755449 7.23617344,112.020703 13.0940281,111.789188 C18.4888539,111.568442 24.7505129,109.850928 25.8434766,109.538652 L37.3222874,24.292868 C37.2899831,24.2497955 37.2738309,24.201339 37.279215,24.1421144 L37.2953671,24.0398173 C37.3115193,23.9429042 37.3330555,23.8459912 37.3330555,23.7436941 C37.3007512,20.2332885 37.0800048,8.5875719 35.7070701,6.14320974 C33.919563,2.95584763 31.9166936,0.145369556 27.0764258,0.796840528 C23.4744912,1.27602166 17.751238,6.62777493 14.6607889,9.77206458 C14.2085281,10.2350935 13.9716295,10.843492 14.0039339,11.489579 C14.0308542,12.1410499 14.3269773,12.7386803 14.8276947,13.1640209 L18.4888539,16.2813902 C18.9464988,16.6744264 19.2695422,17.191296 19.4149118,17.7727742 C19.431064,17.8858394 20.8039986,26.5595562 23.269897,31.0175559 C23.3075854,31.0821646 23.3129695,31.1575414 23.2914333,31.2275342 C20.1902161,41.392635 1.95441292,105.759044 0.629934742,110.443174 Z" id="Shape" fill="#878787"></path>
                </g>
                <path d="M206.871646,382.181946 C206.871646,382.181946 173.94275,396.670445 179.784452,402.775967 C184.770089,407.987734 198.171009,412.935683 201.347603,409.699865 C205.181052,405.791039 208.583776,402.124496 211.582696,398.974822 C214.845435,395.545177 208.373798,371.575353 208.373798,371.575353 C208.373798,371.575353 207.738479,376.846345 206.871646,382.181946 Z" id="Path" fill="#367DA9"></path>
                <path d="M179.552938,381.648924 C179.552938,381.648924 171.632989,402.420619 176.898597,408.574597 C181.394285,413.829437 187.76901,413.361024 191.990111,413.264111 C197.864118,413.134893 201.282994,412.128075 203.926566,404.595778 C205.466407,400.197003 206.87703,382.181946 206.87703,382.181946 C206.87703,382.181946 190.584872,386.925301 179.552938,381.648924 Z" id="Path" fill="#3F8ABF"></path>
                <g transform="translate(225.053609, 0.000000)">
                    <g>
                        <path d="M124.46326,0.710695606 C56.1664891,0.710695606 0.802224585,49.9694388 0.802224585,110.733913 C0.802224585,145.024976 18.4350133,175.649496 46.0713811,195.828944 C46.9866709,196.496567 47.9234969,197.13727 48.8603229,197.777973 C48.8495548,197.777973 48.8334026,197.783357 48.8334026,197.783357 C48.8334026,197.783357 43.5516421,214.522392 37.5968744,220.170268 C36.2777802,221.424754 36.7731135,223.691442 38.4852439,224.310609 C44.4615478,226.464232 56.715663,227.304145 74.9460821,211.58808 C74.9514661,211.582696 74.9622342,211.577312 74.9676183,211.571928 C90.1291246,217.472855 106.857392,220.767899 124.46326,220.767899 C192.760031,220.767899 248.124295,171.509155 248.124295,110.744681 C248.124295,49.9802069 192.760031,0.710695606 124.46326,0.710695606 Z" id="Path" fill="#FFFFFF"></path>
                        <path d="M45.5329753,225.775072 C43.1263015,225.775072 40.7303959,225.403572 38.3883308,224.563659 C37.4891932,224.240616 36.8323382,223.47608 36.627744,222.517717 C36.4285339,221.575507 36.719273,220.622529 37.4030483,219.976442 C42.9217073,214.748522 47.934265,199.657009 48.5157432,197.874886 L48.3273012,197.745668 C47.5250766,197.196494 46.7013158,196.625784 45.9044753,196.04969 C17.0620786,174.992641 0.522253589,143.899708 0.522253589,110.739297 C0.522253589,81.2723498 13.4170716,53.5713733 36.8323382,32.7404544 C60.2368367,11.9149195 91.3566897,0.446876782 124.452492,0.446876782 C157.548294,0.446876782 188.668147,11.9149195 212.072646,32.7404544 C235.487912,53.5713733 248.38273,81.2723498 248.38273,110.739297 C248.38273,140.206244 235.487912,167.907221 212.072646,188.73814 C188.668147,209.563675 157.548294,221.031717 124.452492,221.031717 C107.304268,221.031717 90.6729144,217.952037 75.0106908,211.87882 C68.4152202,217.542848 56.8825688,225.775072 45.5329753,225.775072 Z M49.059533,197.955647 C48.585736,199.436262 43.5516421,214.888508 37.7799323,220.364094 C37.2361425,220.880964 37.004628,221.6455 37.1607657,222.404652 C37.3222874,223.174572 37.8499251,223.793739 38.5767728,224.052174 C51.767714,228.800913 66.9184522,218.151247 74.7737922,211.378102 C74.849169,211.313493 74.9783864,211.275805 75.0699154,211.313493 C90.7159868,217.402863 107.336573,220.487928 124.468644,220.487928 C157.435229,220.487928 188.425865,209.068341 211.73345,188.328951 C235.030267,167.60033 247.860477,140.044723 247.860477,110.733913 C247.860477,81.4231034 235.030267,53.8674965 211.73345,33.1388747 C188.425865,12.3994847 157.435229,0.979898487 124.468644,0.979898487 C56.4303079,0.979898487 1.07681152,50.2171054 1.07681152,110.733913 C1.07681152,143.722034 17.5358757,174.658829 46.2382868,195.613581 C47.0243593,196.189676 47.8481201,196.755002 48.6449606,197.304176 L49.0164606,197.557226 C49.1079896,197.616451 49.151062,197.729516 49.1295258,197.831813 C49.1079896,197.88027 49.0864533,197.923342 49.059533,197.955647 Z" id="Shape" fill="#878787"></path>
                    </g>
                    <path d="M166.491214,112.392203 C166.491214,112.392203 167.987982,159.438098 170.836148,163.863794 C170.836148,163.863794 178.605343,182.013452 190.514879,181.232764 C202.424414,180.457459 207.388515,178.6538 207.108544,168.036438 C206.828573,157.419077 185.335415,128.937412 185.335415,128.937412 L180.931256,116.947116 C180.93664,116.947116 175.934851,114.712732 166.491214,112.392203 Z" id="Path" fill="#3F8ABF"></path>
                    <g transform="translate(120.602891, 81.299270)">
                        <path d="M1.92749263,7.45153575 C1.92749263,7.45153575 1.51830425,18.1335061 0.716079663,19.9587016 C0.716079663,19.9587016 7.79073138,35.3571064 17.2559047,35.7016861 C26.726462,36.0462658 27.5233026,29.7684546 27.5233026,27.8301938 C27.5233026,25.8919331 25.2404621,20.1902161 25.8111722,18.7042162 C26.3818823,17.2182163 4.17802871,0.371499976 4.17802871,0.371499976 L1.92749263,7.45153575 Z" id="Path" fill="#FFFFFF"></path>
                        <path d="M17.9935206,35.9870411 C17.751238,35.9870411 17.5035713,35.9816571 17.2505206,35.970889 C13.2986223,35.8255194 9.13674578,33.0258094 5.22791995,27.8624982 C2.29360855,23.9913608 0.495333301,20.1094552 0.479181128,20.0717668 C0.446876782,20.0017741 0.446876782,19.9210132 0.479181128,19.8510204 C1.24910137,18.0904336 1.6636738,7.54844878 1.6636738,7.44076763 C1.6636738,7.4192314 1.66905786,7.39231111 1.67444192,7.37077488 L3.93036206,0.296123169 C3.95728235,0.209978247 4.02189104,0.145369556 4.10803596,0.118449268 C4.19418089,0.0915289795 4.28032581,0.107681152 4.35031856,0.161521729 C4.40415913,0.20459419 9.96589065,4.42569536 15.3876367,8.77601392 C26.5003316,17.6920133 26.2203606,18.4188611 26.0749911,18.8065133 C25.7788679,19.5764335 26.4034186,21.8592739 26.9525924,23.8729115 C27.3887011,25.4719766 27.8032736,26.9795127 27.8032736,27.8355779 C27.8032736,28.8800851 27.5771431,31.5236574 25.4988969,33.5265268 C23.7975347,35.1578963 21.2777957,35.9870411 17.9935206,35.9870411 Z M1.01220283,19.9533175 C1.65290569,21.2939479 8.47989075,35.1202079 17.2666728,35.4378673 C20.7716943,35.5670846 23.4044985,34.7917803 25.1166288,33.1388747 C27.0441214,31.2759907 27.2540997,28.8100923 27.2540997,27.8355779 C27.2540997,27.0495055 26.8502954,25.5742737 26.4249548,24.012897 C25.7950201,21.7192884 25.2027737,19.5495132 25.5635056,18.6126872 C25.4773607,17.3582018 12.6256151,7.13387635 4.32339827,0.823760816 L2.19669551,7.50537632 C2.16439116,8.28068062 1.77673901,17.8643032 1.01220283,19.9533175 Z" id="Shape" fill="#878787"></path>
                    </g>
                    <g transform="translate(164.752163, 69.454343)">
                        <path d="M2.70818098,0.592246338 C2.70818098,0.592246338 8.89446319,1.1306521 12.5502383,3.36503601 C16.2060134,5.59941992 19.25339,26.532636 19.25339,26.532636 C21.8969623,29.1762082 41.6079973,76.7228211 43.8423812,84.0397554 C46.0767651,91.3566897 43.0293885,100.294225 38.7598308,102.533993 C34.4902731,104.768377 24.7397448,99.4866167 20.0663828,90.1398927 C15.3930207,80.7931686 10.7196587,32.2289689 10.7196587,32.2289689 C10.7196587,32.2289689 1.14680427,24.6912882 0.683775318,21.6277595 C0.22613042,18.5534626 2.70818098,0.592246338 2.70818098,0.592246338 Z" id="Path" fill="#FFFFFF"></path>
                        <path d="M36.439302,103.309298 C35.50786,103.309298 34.4687369,103.131624 33.354237,102.765508 C29.0416068,101.371037 23.1891362,96.9614937 19.8294842,90.2475738 C15.2530352,81.0946759 10.7788834,35.5670846 10.466608,32.3528022 C9.42748489,31.5290414 0.872217334,24.6589839 0.425340552,21.6546797 C-0.0323043457,18.5857669 2.34206506,1.28678977 2.44436216,0.549173877 C2.46589839,0.409188379 2.58973172,0.312275342 2.73510127,0.317445779 C2.98815198,0.33919563 9.02906463,0.888369507 12.6956079,3.12813748 C16.3352308,5.35175327 19.2749263,24.7558969 19.5172089,26.4034186 C22.4192159,29.7199981 41.7802871,76.340553 44.1062,83.9536105 C46.4536491,91.6312766 43.1747581,100.520356 38.8944322,102.760124 C38.1998888,103.131624 37.3707439,103.309298 36.439302,103.309298 Z M2.93969546,0.88298545 C2.63818823,3.09044907 0.538405762,18.784977 0.952978199,21.5793029 C1.39447092,24.5028462 10.7950355,31.9328457 10.8865645,32.0082226 C10.9457891,32.051295 10.9780935,32.1212878 10.9888616,32.1912805 C11.0373181,32.6758457 15.7106801,80.8147049 20.3086653,90.0106753 C23.5929405,96.5846096 29.3108097,100.89724 33.5157587,102.254022 C35.5832368,102.921645 37.4030483,102.932414 38.6359975,102.286327 C42.7117291,100.15424 45.7914101,91.3459216 43.5839464,84.1151322 C41.5003161,77.2881471 21.6708319,29.3269619 19.064948,26.721078 C19.0218756,26.6780055 18.9949553,26.629549 18.9895712,26.5703244 C18.9572669,26.3603461 15.9206584,5.73940542 12.4102528,3.59655049 C9.26596316,1.67444192 4.13495625,1.01758689 2.93969546,0.88298545 Z" id="Shape" fill="#878787"></path>
                    </g>
                    <path d="M123.273383,79.3556253 C123.273383,79.3556253 120.32292,79.4525383 120.32292,79.98556 C120.32292,80.5185817 122.788818,86.0803132 122.788818,86.0803132 L128.592832,84.9658133 L127.192977,80.3678281 L123.273383,79.3556253 Z" id="Path" fill="#333333"></path>
                    <path d="M157.693664,59.5530613 L144.578099,69.7666186 C144.028925,70.1919592 143.932012,70.9834157 144.357353,71.5325895 L166.248931,99.6589065 C166.674272,100.20808 167.465728,100.304993 168.014902,99.8796529 L181.130466,89.6660956 C181.67964,89.2407551 181.776553,88.4492986 181.351213,87.9001247 L159.459635,59.7738077 C159.034294,59.2246338 158.242838,59.1223367 157.693664,59.5530613 Z" id="Path" fill="#F8B3C0"></path>
                    <g transform="translate(118.987673, 53.302170)">
                        <path d="M15.8560497,43.5570261 C21.6869841,46.4051926 28.22323,48.2357722 34.5225775,44.0631276 C40.5258017,40.089693 41.9902654,29.4077227 42.5825117,20.7663102 C43.3901204,8.96984 38.0383671,0.985282544 38.0383671,0.985282544 L14.4454266,0.398420264 L11.5164992,3.47810122 L11.3711297,17.2505206 C11.3711297,17.2505206 7.381543,13.6808904 4.17264466,13.8585643 C0.231514478,14.0793107 0.506101416,18.9895712 0.899137623,22.4461362 C1.4859999,27.6417518 5.26022429,26.817991 5.26022429,26.817991 C5.26022429,26.817991 7.30078213,39.3789974 15.8560497,43.5570261 Z" id="Path" fill="#FFFFFF"></path>
                        <path d="M26.4895635,46.7928448 C22.5807377,46.7928448 18.871122,45.3337652 15.7376004,43.8046928 C7.83918789,39.9497075 5.39482574,28.9554619 5.03947793,27.1248823 C4.55491275,27.1679548 3.52117368,27.1625707 2.55204331,26.4734113 C1.49138396,25.7142592 0.845297046,24.3682448 0.629934742,22.4838246 C0.306891284,19.6302741 0.172289844,16.4859844 1.60983323,14.7846222 C2.2236158,14.0577744 3.07968096,13.6539701 4.15649248,13.5947455 C6.84852129,13.4439919 9.96589065,15.7537526 11.1073109,16.6798105 L11.2472964,3.37042007 L14.3323614,0.129217383 L14.4508107,0.129217383 L38.1837366,0.716079663 L38.2591134,0.829144873 C38.312954,0.909905738 43.6539392,9.02906463 42.8463305,20.7770784 C42.2433161,29.5961647 40.7627002,40.2404467 34.667947,44.2838739 C31.9328457,46.1036854 29.1654401,46.7928448 26.4895635,46.7928448 Z M5.48097066,26.4949475 L5.52404312,26.7749185 C5.54557935,26.8987519 7.64536182,39.2497801 15.974499,43.3147436 C21.116274,45.8290985 27.8571141,48.1550114 34.3772079,43.8369971 C40.2781351,39.9281713 41.7210625,29.4454111 42.3186929,20.744774 C43.0616928,9.94435442 38.5337004,2.27207232 37.8929975,1.24910137 L14.5638759,0.667623145 L11.7910862,3.58039832 L11.6403326,17.842767 L11.1988398,17.4497307 C11.1611514,17.4120423 7.2415575,13.9447092 4.19418089,14.1277672 C3.25735486,14.1816078 2.55204331,14.5046512 2.02440567,15.1238179 C0.721463721,16.6690424 0.861449219,19.6787306 1.1683405,22.4138319 C1.36216658,24.1367303 1.93287669,25.3535273 2.86431865,26.0211505 C3.95728235,26.8072229 5.1956156,26.5541722 5.20638372,26.5541722 L5.48097066,26.4949475 Z" id="Shape" fill="#878787"></path>
                    </g>
                    <path d="M123.359528,94.4148344 C123.316456,94.6301967 123.095709,94.748646 122.896499,94.6463489 C120.925934,93.6556823 110.114746,87.738603 108.467225,81.6546179 C106.636645,74.8760893 108.650283,71.0318722 108.467225,65.5347494 C108.284167,60.0376265 105.452153,51.2508445 107.691921,47.4012433 C109.931688,43.5570261 115.245753,40.6227147 124.220977,40.0735409 C133.196201,39.524367 143.086715,38.6090772 146.747874,35.1255919 C150.409034,31.6421066 158.102852,31.4644327 159.567316,36.7731135 C160.961787,41.8341277 163.799185,54.8689312 161.65633,63.6503292 C161.575569,63.9841408 161.096388,63.9787567 161.015627,63.6503292 C160.547214,61.7497568 159.621156,58.7508368 157.655975,54.7397138 C157.564446,54.5566559 157.483685,54.2820689 157.327548,54.4166704 C155.873852,55.6765398 148.605374,61.0282931 132.011709,58.8962063 C131.796346,58.869286 131.607904,59.0308077 131.634825,59.2461701 C131.860955,61.109054 132.733173,68.9159375 131.866339,72.9647489 C131.629441,74.0577126 130.224202,74.3538357 129.54581,73.4654662 C127.984434,71.4195243 126.143086,67.7314449 123.908702,67.5914594 C120.32292,67.370713 120.091405,73.6915966 120.091405,73.6915966 C120.091405,73.6915966 120.333688,81.3100382 124.468644,79.6463644 C125.744666,79.1348789 125.362398,83.7705525 125.653137,85.1650234 C125.760818,85.681893 124.274818,88.5192913 124.172521,88.9338638 C123.784869,90.5598492 123.483362,93.7956678 123.359528,94.4148344 Z" id="Path" fill="#333333"></path>
                    <path d="M113.678993,110.49163 C113.678993,110.49163 101.850218,112.618333 95.5777909,117.582434 L102.108653,176.381728 L98.4205733,183.208713 L100.875704,218.743493 C100.875704,218.743493 139.592462,226.997253 181.615032,208.319957 L179.176054,163.788417 C179.176054,163.788417 174.136576,117.146326 173.129757,114.018188 L157.042193,110.06629 L151.658135,108.704123 L141.972215,121.781999 L136.08744,118.363123 L117.717036,107.621928 L113.678993,110.49163 Z" id="Path" fill="#3F8ABF"></path>
                    <path d="M130.934897,119.75221 C130.934897,119.75221 136.012064,122.417318 141.982983,121.792767 L141.692244,117.469369 C141.654556,116.920195 141.175375,116.511007 140.620817,116.537927 C136.588158,116.710217 135.09139,115.730319 134.229941,115.504188 C125.130883,113.086746 130.934897,119.75221 130.934897,119.75221 Z" id="Path" fill="#357CA8"></path>
                    <path d="M120.452137,101.117986 C119.418398,102.787044 115.800311,106.076703 113.678993,110.49163 C113.544391,110.776986 113.544391,111.110797 113.695145,111.390768 C114.798877,113.469014 119.77913,122.422702 126.29384,127.257586 C126.69226,127.553709 127.252202,127.494484 127.596782,127.139137 L136.098209,118.368507 C136.609694,117.840869 136.717375,116.074898 136.017448,115.870304 C133.454636,115.111152 128.269789,111.875333 122.185804,101.047993 C121.878912,100.514972 120.909782,100.38037 120.452137,101.117986 Z" id="Path" fill="#367DA9"></path>
                    <path d="M140.044723,122.099659 C140.044723,122.099659 148.045432,121.545101 149.746795,115.918761 C151.448157,110.29242 148.486925,112.069159 148.486925,112.069159 L145.967186,113.253652 C145.967186,113.253652 143.576665,116.731753 139.985498,116.537927 L140.044723,122.099659 Z" id="Path" fill="#367DA9"></path>
                    <path d="M147.356273,115.358819 C149.908316,116.414094 154.910106,118.675398 157.042193,121.006695 C157.332932,121.324354 157.871338,121.114376 157.892874,120.683652 C158.016707,118.013159 158.129772,112.29529 157.052961,110.071674 C155.739251,107.363493 150.82899,102.533993 147.243208,100.692646 C146.871708,100.504204 145.299563,100.52574 145.369556,100.940312 C145.859505,103.616189 147.157063,110.960043 145.708751,113.549775 C145.407244,114.093565 146.774795,115.12192 147.356273,115.358819 Z" id="Path" fill="#367DA9"></path>
                    <path d="M151.469693,217.575152 C151.448157,217.429783 149.569121,202.90898 149.569121,198.057944 C149.569121,192.673886 147.706237,161.65633 144.028925,152.718794 C140.281621,143.608969 139.40402,116.823282 139.393252,116.554079 L139.797056,116.543311 C139.807824,116.812514 140.680042,143.522824 144.400425,152.562657 C148.104657,161.554033 149.972925,192.657734 149.972925,198.057944 C149.972925,202.882059 151.851961,217.375942 151.868113,217.521312 L151.469693,217.575152 Z" id="Path" fill="#357AA8"></path>
                    <circle id="Oval" fill="#367DA9" cx="143.88894" cy="131.505607" r="1.23833325"></circle>
                    <circle id="Oval" fill="#367DA9" cx="148.110041" cy="148.066969" r="1.23833325"></circle>
                    <circle id="Oval" fill="#367DA9" cx="152.11578" cy="167.82646" r="1.23833325"></circle>
                    <circle id="Oval" fill="#367DA9" cx="153.354113" cy="185.755372" r="1.23833325"></circle>
                    <path d="M104.138442,146.155628 L98.4474936,181.114314 L99.5350732,199.280125 C99.5350732,199.280125 116.43563,181.265068 111.869949,149.305302" id="Path" fill="#367DA9"></path>
                    <circle id="Oval" fill="#367DA9" cx="153.687925" cy="203.178182" r="1.23833325"></circle>
                    <path d="M80.2009223,148.756128 C80.2009223,148.756128 92.1050737,115.208065 97.5591241,117.017108 C99.5835297,117.684731 106.916616,130.638774 109.457891,138.165687 C110.432406,141.051542 114.098949,153.870983 109.894,164.170685 C105.737508,174.357322 99.4327761,194.822125 95.0393851,196.087379 C86.6025668,198.520973 80.2009223,148.756128 80.2009223,148.756128 Z" id="Path" fill="#3F8ABF"></path>
                    <g transform="translate(36.611592, 108.219558)">
                        <path d="M1.57214483,1.95441292 C0.667623145,2.36898535 0.188442017,3.36503601 0.468413013,4.31801421 C1.45907962,7.65612994 4.25878958,15.323028 9.6805356,17.8104626 C16.6851946,21.0193609 21.9400348,23.6467811 21.9400348,23.6467811 C21.9400348,23.6467811 36.536215,72.980901 39.7451134,77.3581399 C42.9540117,81.7353787 52.5914748,90.4952405 58.4277933,87.8678204 C64.2641118,85.2404002 65.7231914,78.8172195 62.514293,72.1032996 C59.3053947,65.3893798 32.3204979,23.7706144 32.6381573,20.0394625 C32.9935051,15.8775859 26.4357229,11.5595717 20.7232378,9.65361531 C15.0107526,7.74765892 17.8696872,2.88585488 14.1654556,1.61521729 C10.8058036,0.463028955 6.56316624,-0.328427515 1.57214483,1.95441292 Z" id="Path" fill="#FFFFFF"></path>
                        <path d="M56.0588079,88.6215884 C53.2698661,88.6215884 50.2386417,87.0225233 47.9558012,85.4665307 C44.3754029,83.0329366 41.1449683,79.7217412 39.5351351,77.5196616 C36.3800773,73.2124155 22.6776507,27.0656577 21.7192884,23.8352231 C20.9439841,23.4475709 15.9583468,20.9816725 9.57285445,18.0527452 C4.0272751,15.51147 1.17910862,7.65074588 0.215362305,4.39339102 C-0.0969130372,3.33273167 0.436108667,2.17515928 1.46446367,1.70674627 L1.46446367,1.70674627 C6.71391985,-0.689159375 11.0588544,0.263818823 14.2623686,1.36216658 C16.0498758,1.97594915 16.4213757,3.34888384 16.8144119,4.80796345 C17.2935931,6.5685503 17.7889264,8.39374583 20.8147668,9.4005646 C26.9472084,11.4465065 33.268092,15.8775859 32.9127442,20.0663828 C32.7189182,22.333071 43.8746855,40.5688742 52.0207647,53.8836487 C57.1463876,62.2612423 61.5720829,69.4974158 62.7619597,71.9902344 C64.565619,75.7644588 64.942503,79.5332992 63.817235,82.602212 C62.9180973,85.0627263 61.0929018,86.9686827 58.5408585,88.1208711 C57.7547861,88.4708348 56.9202572,88.6215884 56.0588079,88.6215884 Z M1.68521004,2.19669551 C0.899137623,2.55742737 0.489949243,3.43502876 0.726847779,4.23725335 C1.66905786,7.42461546 4.44184754,15.1130497 9.78821675,17.562796 C16.7174989,20.73939 22.0046435,23.3775782 22.0584841,23.4044985 C22.1230928,23.4368028 22.1769333,23.4960275 22.1984696,23.5714043 C22.3438391,24.0667376 36.816186,72.9109083 39.9658597,77.2020022 C42.6202001,80.825473 50.3194025,88.0885667 56.0372717,88.0885667 C56.8448804,88.0885667 57.6094165,87.9431972 58.3201121,87.6255378 C60.737554,86.5379581 62.4604525,84.7342988 63.3111336,82.41377 C64.382561,79.4848426 64.0164451,75.8613719 62.2720104,72.2217489 C61.0929018,69.7504665 56.6725905,62.5250611 51.5577358,54.1636197 C40.5688742,36.2024034 32.1805124,22.2792304 32.3743385,20.0179262 C32.6973819,16.2490859 26.6618533,11.9149195 20.6424769,9.91205008 C17.3366655,8.81370232 16.7821076,6.75699231 16.2921584,4.94794895 C15.9206584,3.57501426 15.5976149,2.39052158 14.0846947,1.87365205 C10.9727094,0.802224585 6.75699231,-0.123833325 1.68521004,2.19669551 L1.68521004,2.19669551 Z" id="Shape" fill="#878787"></path>
                    </g>
                </g>
                <path d="M422.228567,308.334212 C422.228567,308.334212 436.883972,288.601641 445.514616,286.011909 C445.514616,286.011909 447.474413,307.348929 450.220282,319.118479 C452.966152,330.888029 455.841238,344.956572 451.076347,353.775658 C445.579225,363.951527 438.563798,368.145708 438.563798,368.145708 L418.233596,368.145708 L419.412705,308.328828 L422.228567,308.328828 L422.228567,308.334212 Z" id="Path" fill="#82B279"></path>
                <path d="M397.666496,248.517332 C397.666496,248.517332 396.099735,284.601286 391.388685,309.31411 C386.677634,334.026935 397.666496,363.440042 404.331959,368.151092 L421.200212,368.151092 C421.200212,368.151092 423.553045,297.156908 421.200212,288.133228 C418.847378,279.109547 408.649973,259.500809 397.666496,248.517332 Z" id="Path" fill="#82B279"></path>
                <path d="M412.994908,368.371838 C409.818314,366.261288 407.627002,357.625259 406.485582,342.71142 C405.624133,331.458739 405.430307,316.534132 405.974097,302.788632 C406.905539,279.276453 397.49959,248.904984 397.402677,248.598092 L397.919547,248.436571 C398.01646,248.743462 407.449329,279.201076 406.512502,302.810169 C405.968713,316.539516 406.157155,331.442587 407.018604,342.673731 C408.133104,357.210687 410.302879,365.938244 413.291031,367.924962 L412.994908,368.371838 Z" id="Path" fill="#A3CF97"></path>
                <path d="M426.508892,368.339534 L426.126624,367.957266 C426.234306,367.849585 436.937812,356.828419 435.66179,327.092269 C435.015704,312.022291 445.164652,286.173431 445.266949,285.914996 L445.767667,286.114206 C445.66537,286.372641 435.559493,312.119204 436.200196,327.070732 C437.486986,357.076085 426.616574,368.231853 426.508892,368.339534 Z" id="Path" fill="#A3CF97"></path>
                <g transform="translate(375.268816, 367.731135)">
                    <path d="M1.6636738,0.419956494 L88.7454218,0.419956494 C88.7454218,0.419956494 98.6036313,28.497817 79.6355963,45.5598956 L12.6848398,45.5598956 C12.6848398,45.5598956 -4.02189104,37.3815121 1.6636738,0.419956494 Z" id="Path" fill="#FFFFFF"></path>
                    <path d="M79.6355963,45.8290985 L12.6848398,45.8290985 C12.6417673,45.8290985 12.6040789,45.8183303 12.5663905,45.8021782 C12.3941006,45.7160333 8.2699125,43.6431711 4.8025794,36.9777077 C1.62060134,30.8614183 -1.55060859,19.5495132 1.39985498,0.382268091 C1.42139121,0.253050708 1.53445642,0.156137671 1.6636738,0.156137671 L88.7454218,0.156137671 C88.858487,0.156137671 88.9607841,0.22613042 88.9984725,0.333811572 C89.0953855,0.619166626 98.7005443,28.777788 79.8132702,45.7644898 C79.7701977,45.8021782 79.705589,45.8290985 79.6355963,45.8290985 Z M12.7494484,45.2906927 L79.5332992,45.2906927 C97.2576168,29.2515851 89.3430521,3.11736936 88.5515957,0.689159375 L1.89518828,0.689159375 C0.306891284,11.1557674 -0.371499976,25.8111722 5.25484024,36.6815846 C8.43143423,42.8086421 12.2594992,45.0214898 12.7494484,45.2906927 Z" id="Shape" fill="#878787"></path>
                </g>
                <g transform="translate(327.350703, 353.732586)">
                    <g transform="translate(0.000000, 2.692029)">
                        <path d="M8.84600667,35.7016861 L6.31011553,36.0893382 C6.04091265,36.1324107 5.793246,35.9439687 5.75017354,35.6747658 L0.522253589,1.28140571 C0.479181128,1.01220283 0.667623145,0.764536182 0.936826026,0.721463721 L3.47271716,0.333811572 C3.74192005,0.290739111 3.9895867,0.479181128 4.03265916,0.748384009 L9.26057911,35.1417441 C9.29826751,35.410947 9.11520955,35.6586136 8.84600667,35.7016861 Z" id="Path" fill="#FFFFFF"></path>
                        <path d="M6.23473872,36.3639252 C6.073217,36.3639252 5.91707932,36.3154686 5.78786194,36.2131716 C5.62634021,36.0947223 5.51865906,35.9170484 5.48635471,35.7124542 L0.258434766,1.31909412 C0.22613042,1.11988398 0.279970996,0.915289795 0.398420264,0.753768067 C0.516869532,0.592246338 0.694543433,0.484565186 0.899137623,0.45226084 L3.43502876,0.0646086914 C3.85498526,0.00538405762 4.23725335,0.285355054 4.30186204,0.699927491 L9.52978199,35.0932876 C9.59439068,35.50786 9.30365157,35.8955122 8.88907913,35.9601208 L6.35318799,36.347773 C6.31549959,36.3585411 6.27242713,36.3639252 6.23473872,36.3639252 Z M3.54270991,0.597630396 C3.5319418,0.597630396 3.52117368,0.597630396 3.51040557,0.597630396 L0.974514429,0.985282544 C0.915289795,0.99605066 0.861449219,1.02297095 0.829144873,1.07142747 C0.79145647,1.11988398 0.780688355,1.17910862 0.786072413,1.23833325 L6.01399236,35.6316933 C6.02476048,35.690918 6.05706482,35.7447585 6.10013728,35.7770629 C6.1485938,35.8093672 6.20781844,35.8255194 6.26704307,35.8201353 L8.80293421,35.4324832 C8.80293421,35.4324832 8.80293421,35.4324832 8.80293421,35.4324832 C8.86215884,35.4217151 8.91599942,35.3947948 8.94830376,35.3463383 C8.98599217,35.2978818 8.99676028,35.2386571 8.99137623,35.1794325 L3.76345628,0.786072413 C3.75268816,0.726847779 3.72038382,0.673007203 3.67731135,0.640702857 C3.63423889,0.613782569 3.59116643,0.597630396 3.54270991,0.597630396 Z" id="Shape" fill="#878787"></path>
                    </g>
                    <g transform="translate(20.459419, 4.845652)">
                        <path d="M3.33273167,36.1700991 L0.786072413,35.8955122 C0.516869532,35.8685919 0.323043457,35.6263093 0.349963745,35.3517223 L4.0649635,0.759152124 C4.09188379,0.489949243 4.33416638,0.296123169 4.60875332,0.323043457 L7.15541258,0.597630396 C7.42461546,0.624550684 7.61844153,0.866833277 7.59152124,1.14142022 L3.87652149,35.7339904 C3.84421714,36.0031933 3.60193455,36.1970194 3.33273167,36.1700991 Z" id="Path" fill="#FFFFFF"></path>
                        <path d="M3.38118819,36.444686 C3.3542679,36.444686 3.32734761,36.444686 3.30042732,36.439302 C3.30042732,36.439302 3.30042732,36.439302 3.30042732,36.439302 L0.753768067,36.164715 C0.33919563,36.1216426 0.0323043457,35.7447585 0.0807608643,35.324802 L3.79576062,0.732231836 C3.83883308,0.312275342 4.22110117,0.0107681152 4.63567361,0.0592246338 L7.18233287,0.333811572 C7.38692705,0.355347803 7.56460096,0.45226084 7.69381834,0.613782569 C7.82303572,0.76992024 7.8768763,0.969130372 7.85534007,1.17372456 L4.14034031,35.7662948 C4.09726785,36.1539469 3.76884033,36.444686 3.38118819,36.444686 Z M3.35965195,35.9008962 C3.48886934,35.9170484 3.59116643,35.8255194 3.60731861,35.7016861 L7.32231836,1.10911587 C7.32770242,1.04989124 7.31155025,0.990666602 7.27386184,0.947594141 C7.23617344,0.90452168 7.18233287,0.872217334 7.12310823,0.866833277 L4.57644898,0.592246338 C4.45261565,0.576094165 4.3449345,0.667623145 4.32878233,0.79145647 L0.613782569,35.3840267 C0.603014453,35.50786 0.689159375,35.6155412 0.812992701,35.6316933 L3.35965195,35.9008962 Z" id="Shape" fill="#878787"></path>
                    </g>
                    <g transform="translate(15.075361, 6.460869)">
                        <rect id="Rectangle" fill="#FFFFFF" x="0.570710108" y="0.366115918" width="3.54809397" height="35.7716788"></rect>
                        <path d="M4.11342002,36.4069976 L0.56532605,36.4069976 C0.414572437,36.4069976 0.296123169,36.2885484 0.296123169,36.1377947 L0.296123169,0.366115918 C0.296123169,0.215362305 0.414572437,0.0969130372 0.56532605,0.0969130372 L4.11342002,0.0969130372 C4.26417364,0.0969130372 4.3826229,0.215362305 4.3826229,0.366115918 L4.3826229,36.1377947 C4.3826229,36.2885484 4.26417364,36.4069976 4.11342002,36.4069976 Z M0.839912989,35.8685919 L3.8496012,35.8685919 L3.8496012,0.635318799 L0.839912989,0.635318799 L0.839912989,35.8685919 Z" id="Shape" fill="#878787"></path>
                    </g>
                    <g transform="translate(2.692029, 8.076086)">
                        <path d="M16.8628685,33.8011137 L14.4938831,34.7756282 C14.2408324,34.8779253 13.9554774,34.759476 13.8531803,34.5064253 L0.619166626,2.33129695 C0.516869532,2.07824624 0.635318799,1.79289119 0.888369507,1.69059409 L3.25735486,0.716079663 C3.51040557,0.613782569 3.79576062,0.732231836 3.89805772,0.985282544 L17.1320713,33.1604109 C17.2343684,33.4134616 17.1159192,33.6988166 16.8628685,33.8011137 Z" id="Path" fill="#FFFFFF"></path>
                        <path d="M14.3054411,35.0825195 C14.0039339,35.0825195 13.7239629,34.9048456 13.6001295,34.6087224 L0.366115918,2.43359404 C0.290739111,2.24515203 0.290739111,2.04055784 0.366115918,1.85211582 C0.441492725,1.6636738 0.592246338,1.51830425 0.780688355,1.44292744 L3.14967371,0.468413013 C3.53732586,0.306891284 3.98420264,0.495333301 4.14034031,0.88298545 L17.3743539,33.0581138 C17.5304916,33.4457659 17.3474337,33.8926427 16.9597815,34.0487804 L16.9597815,34.0487804 L14.5907962,35.0232948 C14.4992672,35.0663673 14.4023541,35.0825195 14.3054411,35.0825195 Z M3.44041282,0.952978199 C3.41349253,0.952978199 3.38118819,0.958362256 3.3542679,0.969130372 L0.985282544,1.9436448 C0.931441968,1.96518103 0.888369507,2.00825349 0.866833277,2.06209407 C0.845297046,2.11593464 0.845297046,2.17515928 0.866833277,2.23438391 L14.1008469,34.4095123 C14.1493034,34.5225775 14.2785208,34.5818021 14.391586,34.5279615 L16.7605714,33.5534471 C16.8736366,33.5049906 16.9274772,33.3757732 16.8790206,33.262708 L3.64500701,1.08757964 C3.62347078,1.03373906 3.58039832,0.990666602 3.52655774,0.969130372 C3.49963745,0.958362256 3.47271716,0.952978199 3.44041282,0.952978199 Z" id="Shape" fill="#878787"></path>
                    </g>
                    <g transform="translate(1.615217, 22.613042)">
                        <polygon id="Path" fill="#FFFFFF" points="0.726847779 0.479181128 26.4357229 0.479181128 22.7799478 36.9454034 5.46481848 36.9454034"></polygon>
                        <path d="M22.7799478,37.2146063 L5.46481848,37.2146063 C5.33021704,37.2146063 5.21715183,37.1123092 5.1956156,36.9777077 L0.457644898,0.516869532 C0.446876782,0.441492725 0.473797071,0.360731861 0.522253589,0.306891284 C0.576094165,0.247666651 0.646086914,0.215362305 0.726847779,0.215362305 L26.4357229,0.215362305 C26.5110997,0.215362305 26.5864765,0.247666651 26.634933,0.306891284 C26.6833896,0.360731861 26.7103099,0.436108667 26.7049258,0.511485474 L23.0491507,36.9723237 C23.0329985,37.1069251 22.9199333,37.2146063 22.7799478,37.2146063 Z M5.70171702,36.6762005 L22.5376652,36.6762005 L26.1395997,0.753768067 L1.03373906,0.753768067 L5.70171702,36.6762005 Z" id="Shape" fill="#878787"></path>
                    </g>
                    <g transform="translate(15.075361, 0.000000)" id="Path">
                        <polyline fill="#FFFFFF" points="0.570710108 5.67479673 2.16439116 0.603014453 4.11880408 5.67479673"></polyline>
                        <path d="M4.11342002,5.94399961 C4.00573887,5.94399961 3.90344177,5.87939092 3.86036931,5.77170977 L2.18592739,1.42139121 L0.823760816,5.7555576 C0.780688355,5.89554309 0.629934742,5.98168802 0.484565186,5.9332315 C0.344579688,5.89015904 0.263818823,5.73940542 0.306891284,5.59403587 L1.90057234,0.522253589 C1.93287669,0.414572437 2.03517378,0.33919563 2.14823899,0.333811572 C2.25053609,0.3176594 2.36898535,0.398420264 2.40667376,0.506101416 L4.36108667,5.57788369 C4.41492725,5.71786919 4.3449345,5.87400686 4.204949,5.92784744 C4.18341277,5.93861555 4.14572437,5.94399961 4.11342002,5.94399961 Z" fill="#878787"></path>
                    </g>
                </g>
                <g transform="translate(34.996375, 220.207957)">
                    <path d="M49.3879605,0.166905786 L3.32734761,0.166905786 C3.32734761,0.166905786 3.32734761,0.166905786 3.32734761,0.166905786 C1.57752888,0.166905786 0.161521729,1.588297 0.161521729,3.33811572 L0.161521729,28.1855416 C0.161521729,29.9353604 1.57752888,31.3513675 3.32734761,31.3513675 L33.1604109,31.3513675 L44.4238594,41.3549466 L45.3660695,31.3513675 L49.3933446,31.3513675 C51.1431633,31.3513675 52.5645545,29.9299763 52.5645545,28.1801576 L52.5645545,3.33811572 C52.5537864,1.588297 51.1377793,0.166905786 49.3879605,0.166905786 Z" id="Path" fill="#DEEBF8"></path>
                    <g transform="translate(11.844927, 12.383333)" fill="#FFFFFF" id="Oval">
                        <circle cx="3.34349978" cy="3.47810122" r="3.24658674"></circle>
                        <circle cx="14.5100353" cy="3.47810122" r="3.24658674"></circle>
                        <circle cx="25.6819548" cy="3.47810122" r="3.24658674"></circle>
                    </g>
                </g>
                <g transform="translate(128.140571, 151.830425)">
                    <polygon id="Rectangle" fill="#FFFFFF" transform="translate(25.075239, 17.231038) rotate(-88.372587) translate(-25.075239, -17.231038) " points="8.81802279 -6.88962132 41.332456 -6.88962132 41.332456 41.351697 8.81802279 41.351697"></polygon>
                    <path d="M25.5635056,22.1338609 C25.4988969,22.1338609 25.4342882,22.1123246 25.3858317,22.0692522 L1.93287669,1.50215208 C1.81981148,1.40523904 1.80904336,1.2329492 1.9059564,1.11988398 C2.00286943,1.00681877 2.17515928,0.99605066 2.28822449,1.0929637 L25.5688896,21.5093102 L48.4672867,2.28284043 C48.5803519,2.18592739 48.7526418,2.20207957 48.8441707,2.31514478 C48.9410838,2.42820999 48.9249316,2.60049983 48.8118664,2.69202881 L25.7411795,22.0746362 C25.6873389,22.1123246 25.6281143,22.1338609 25.5635056,22.1338609 Z" id="Path" fill="#E1E9F6"></path>
                </g>
                <path d="M133.40618,82.3599294 C131.570216,83.5067337 129.556579,84.3466467 127.451412,84.8527481 C116.376405,87.5609291 105.204486,80.7770165 102.496305,69.7020099 C99.7881239,58.6270034 106.572037,47.4550839 117.647043,44.7469029 C128.72205,42.0387219 139.893969,48.8226345 142.60215,59.897641 C144.728853,68.58751 141.013853,77.6542631 133.40618,82.3599294 Z" id="Path" fill="#DEEBF8"></path>
                <path d="M128.835115,61.109054 C128.835115,64.5763871 126.024637,67.3868652 122.557304,67.3868652 C119.08997,67.3868652 116.279492,64.5763871 116.279492,61.109054 C116.279492,57.6417209 119.08997,54.8312428 122.557304,54.8312428 L122.557304,54.8312428 C126.024637,54.8366269 128.829731,57.6417209 128.835115,61.109054 Z" id="Path" fill="#FFFFFF"></path>
                <path d="M133.40618,78.4134152 L133.40618,81.0031469 C131.570216,82.1499512 129.556579,82.9898642 127.451412,83.4959656 C122.072738,84.8204437 116.387174,83.9213061 111.686891,80.9923788 L111.686891,78.4134152 C111.692275,72.420959 116.554079,67.5699231 122.541151,67.5699231 C128.528224,67.5753072 133.379259,72.4263431 133.384643,78.4134152 L133.40618,78.4134152 Z" id="Path" fill="#FFFFFF"></path>
                <path d="M378.02007,90.1506608 C378.009301,90.1506608 377.993149,90.1506608 377.982381,90.1506608 C374.353526,90.1183564 372.350657,88.3523855 371.311534,86.8771538 C370.19165,85.2834727 369.927831,83.7113279 369.917063,83.6467192 C369.900911,83.5551902 369.938599,83.4636612 370.008592,83.3990525 C370.078585,83.3398279 370.175498,83.3182917 370.261643,83.345212 C376.744048,85.2888568 381.546627,83.3721322 381.595084,83.3559801 C381.675845,83.3236757 381.767374,83.3344438 381.837366,83.3775163 C381.912743,83.4205888 381.955816,83.5013496 381.966584,83.5874946 C381.977352,83.7382482 382.225019,87.2917262 380.518272,89.1169217 C379.872185,89.800697 379.032272,90.1506608 378.02007,90.1506608 Z M370.541614,83.9859148 C370.902345,85.3642336 372.44757,89.5637985 377.982381,89.612255 L377.982381,89.612255 C378.838446,89.6176391 379.570678,89.3269 380.119852,88.7454218 C381.368953,87.4155595 381.449714,84.9119727 381.438946,83.9859148 C380.222149,84.3897191 376.054889,85.5149872 370.541614,83.9859148 Z" id="Shape" fill="#868686"></path>
                <g transform="translate(173.905061, 285.355054)">
                    <path d="M5.09870257,8.58218785 C-0.118449268,8.62526031 0.473797071,0.753768067 0.473797071,0.753768067 C0.473797071,0.753768067 6.52009378,3.24658674 14.8223106,0.753768067 C14.8223106,0.753768067 13.5785933,8.50681104 5.09870257,8.58218785 Z" id="Path" fill="#FFFFFF"></path>
                    <path d="M5.05563011,8.85139073 C3.8119128,8.85139073 2.78355779,8.42066612 1.99210132,7.57536907 C-0.11306521,5.32483299 0.193826074,0.920673853 0.20459419,0.732231836 C0.209978247,0.646086914 0.258434766,0.570710108 0.333811572,0.522253589 C0.409188379,0.479181128 0.500717359,0.468413013 0.576094165,0.500717359 C0.635318799,0.522253589 6.6439271,2.92354329 14.7469338,0.489949243 C14.8330787,0.463028955 14.9299918,0.484565186 14.9999845,0.54378982 C15.0699773,0.603014453 15.1022816,0.699927491 15.0861295,0.79145647 C15.0753613,0.872217334 13.7078107,8.77062986 5.09870257,8.84600667 L5.09870257,8.84600667 C5.08255039,8.85139073 5.07178228,8.85139073 5.05563011,8.85139073 Z M0.726847779,1.1306521 C0.699927491,2.21284768 0.76992024,5.48097066 2.38513753,7.20925315 C3.07968096,7.9522531 4.00573887,8.32375308 5.09870257,8.31298497 L5.09870257,8.31298497 C12.2056586,8.25376033 14.0739266,2.74586939 14.4669628,1.14142022 C7.51076038,3.10121719 2.12670276,1.59906511 0.726847779,1.1306521 Z" id="Shape" fill="#878787"></path>
                </g>
                <path d="M204.007327,292.182039 C203.872726,292.182039 203.754277,292.079742 203.738124,291.94514 C203.215871,287.610974 200.545378,284.43438 200.518458,284.40746 L196.103531,280.267119 C195.99585,280.164822 195.990465,279.992532 196.092763,279.884851 C196.19506,279.77717 196.36735,279.771786 196.475031,279.874083 L200.911494,284.03596 C201.046096,284.192097 203.738124,287.384844 204.27653,291.885916 C204.292682,292.031285 204.190385,292.165887 204.039632,292.187423 C204.028864,292.182039 204.018095,292.182039 204.007327,292.182039 Z" id="Path" fill="#878787"></path>
                <path d="M207.62003,286.259576 C207.523117,286.259576 207.431588,286.205735 207.383131,286.114206 C207.361595,286.076518 205.450255,282.393822 204.718023,280.584779 C204.120392,279.104163 200.313864,276.702873 200.276175,276.681337 C200.152342,276.600576 200.114654,276.43367 200.19003,276.309837 C200.270791,276.186004 200.437697,276.148315 200.56153,276.223692 C200.723052,276.325989 204.551117,278.743431 205.213356,280.380185 C205.93482,282.162308 207.835392,285.823467 207.856928,285.861155 C207.926921,285.995757 207.873081,286.157278 207.743863,286.221887 C207.706175,286.248807 207.663102,286.259576 207.62003,286.259576 Z" id="Path" fill="#878787"></path>
                <path d="M212.169559,284.601286 C212.024189,284.601286 211.90574,284.488221 211.900356,284.342851 C211.776522,281.63467 209.246015,277.69354 208.992965,277.305888 L204.831088,273.730873 C204.718023,273.63396 204.707255,273.461671 204.804168,273.348605 C204.901081,273.23554 205.073371,273.224772 205.186436,273.321685 L209.375233,276.92362 C209.391385,276.939772 209.407537,276.955924 209.423689,276.97746 C209.542139,277.155134 212.30416,281.338547 212.438762,284.315931 C212.444146,284.466684 212.33108,284.590518 212.180327,284.595902 C212.180327,284.601286 212.174943,284.601286 212.169559,284.601286 Z" id="Path" fill="#878787"></path>
            </g>
        </g>
    </g>
</svg>