<svg xmlns="http://www.w3.org/2000/svg" xmlns:xlink="http://www.w3.org/1999/xlink" width="499" height="500" xmlns:v="https://vecta.io/nano"><style><![CDATA[.B{fill:#fff}.C{fill:#828282}.D{fill:#0b0a08}.E{fill:#3f89be}.F{fill:#ebf2fa}]]></style><defs><path id="A" d="M0 0h82v72H0z"/><path id="B" d="M0 0h168v51H0z"/><path id="C" d="M0 0h96v86H0z"/><path id="D" d="M0 500h499V0H0z"/></defs><g fill="none" fill-rule="evenodd"><path d="M171.66 499h158.68c12.515 0 22.66-10.195 22.66-22.772V133.772C353 121.195 342.855 111 330.34 111H171.66c-12.515 0-22.66 10.195-22.66 22.772v342.456C149 488.805 159.145 499 171.66 499" fill="#377da8"/><path d="M342 436.19V148.81c0-12.045-9.739-21.81-21.752-21.81H181.753C169.739 127 160 136.765 160 148.81v287.38c0 12.045 9.74 21.81 21.753 21.81h138.495C332.26 458 342 448.235 342 436.19" class="F"/><path d="M375.478 296.03c5.859-1.644 6.014-.626 6.758-.857.878-.273 7.964-9.623 7.964-9.623l22.169-28.93 6.651-35.466L439 221l-9.163 40.196c-.816 1.896-34.237 35.372-37.069 38.418l-3.092 8.009c-1.261 3.06-3.961 5.299-4.463 6.096-.074.117-1.918 2.664-5.136 5.144-2.772 2.138-1.307-1.19-1.307-1.19s4.291-4.905 3.79-5.197c-.388-.225-2.55 2.6-5.59 4.998l-2.27 1.772c-1.88 1.445-3.473.677-1.792-1.156.593-.647 1.609-1.697 2.455-2.338.915-.692 1.49-1.63 2.152-2.333 1.316-1.394 2.296-2.393 2.2-2.418-.124-.034-.09-.505-.943.124-1.026.755-2.781 2.851-4.393 3.842-.914.562-2.737 1.853-2.737 1.853s-3.193 1.429-3.363 1.271c-.919-.851.91-2.437 2.273-3.037.616-.823 2.58-2.128 2.58-2.128s3.255-3.539 2.684-4.032c-.243-.21-2.54 1.709-5.139 3.225-2.414 1.409-5.135 2.435-5.55 1.996-.705-.742 1.77-2.594 1.77-2.594s1.817-1.202 2.383-1.647c.664-.523 2.51-2.245 2.51-2.245s6.1-6.304 5.52-6.731-2.468-1.005-3.004-.751-1.205 1.228-1.74 1.48-1.509.128-1.954-.502 1.543-2.838 1.543-2.838 1.632-1.782 3.323-2.257" class="B"/><path d="M381.19 311.466l.079.02.046.148c.057.202.06.21-1.513 1.864l-.766.809c-.221.233-.432.494-.656.77-.447.554-.909 1.125-1.54 1.602-.912.69-2.007 1.85-2.435 2.318-.632.688-.744 1.18-.575 1.362.221.239 1.048.17 2.025-.58l2.282-1.779c1.548-1.22 2.876-2.56 3.846-3.54 1.272-1.283 1.7-1.715 2.067-1.503a.34.34 0 0 1 .164.244c.11.66-2.373 3.616-3.883 5.342-.306.711-.428 1.42-.312 1.51.001 0 .238.116 1.244-.658 3.267-2.517 5.088-5.08 5.103-5.103.154-.244.464-.577.893-1.038 1.067-1.146 2.68-2.877 3.575-5.048l3.106-8.038.018-.049.036-.038c.822-.884 4.25-4.36 8.59-8.76l28.638-29.771c.762-1.77 8.323-36.33 9.13-40.027l-19.551.15-6.66 35.484-.033.046c-1.076 1.516-21.433 27.954-22.3 29.079-1.196 1.578-7.22 9.475-8.137 9.76-.262.08-.465.044-.722-.001-.64-.116-1.83-.328-6.081.864-1.607.45-3.204 2.176-3.22 2.193-.972 1.08-1.702 2.286-1.53 2.528.38.538 1.238.61 1.639.42.227-.107.518-.404.8-.691.33-.334.64-.65.95-.797.679-.32 2.684.333 3.289.781.083.061.133.155.142.264.073.864-3.935 5.105-5.662 6.888-.085.08-1.882 1.752-2.55 2.278-.571.45-2.339 1.62-2.414 1.669-.66.494-1.743 1.494-1.79 2.035-.008.097.023.145.055.178.325.215 2.682-.548 5.261-2.052 1.204-.702 2.338-1.486 3.249-2.118 1.567-1.085 1.948-1.33 2.22-1.095a.462.462 0 0 1 .157.335c.052.903-2.351 3.564-2.834 4.088l-.047.04c-.02.013-1.945 1.296-2.53 2.078l-.042.054-.062.028c-1.025.45-2.25 1.449-2.371 2.162a.47.47 0 0 0 .095.398c.39-.079 1.847-.672 3.137-1.248.217-.153 1.872-1.32 2.745-1.857.957-.588 1.97-1.577 2.863-2.45.598-.584 1.115-1.09 1.537-1.399.399-.293.677-.41.905-.37.185.03.28.15.33.22M374.218 321c-.32 0-.59-.094-.77-.29-.156-.168-.574-.812.573-2.062.438-.478 1.558-1.665 2.504-2.381.581-.44 1.023-.986 1.45-1.514.23-.285.447-.553.682-.801l.768-.81 1.284-1.377a2.051 2.051 0 0 0-.443.267c-.393.288-.922.805-1.482 1.352-.913.892-1.948 1.903-2.954 2.521-.901.553-2.72 1.84-2.737 1.853l-.045.025c-3.369 1.505-3.527 1.36-3.666 1.23a.99.99 0 0 1-.317-.928c.17-1.004 1.609-2.064 2.613-2.523.643-.808 2.346-1.962 2.59-2.126 1.369-1.49 2.493-3 2.658-3.543-.314.165-.936.595-1.54 1.014-.919.636-2.062 1.427-3.284 2.139-1.296.757-5.164 2.74-5.903 1.96a.724.724 0 0 1-.195-.577c.081-.948 1.812-2.267 2.008-2.414.03-.021 1.837-1.216 2.392-1.652.651-.513 2.489-2.224 2.507-2.241 2.589-2.674 5.29-5.74 5.496-6.421-.659-.423-2.308-.85-2.675-.675-.227.107-.519.404-.8.69-.33.336-.64.651-.95.798-.665.314-1.768.15-2.29-.59-.511-.723.928-2.46 1.57-3.174.07-.077 1.714-1.852 3.465-2.344 4.365-1.225 5.634-.998 6.315-.876.238.043.34.059.474.017.642-.256 5.173-6.011 7.879-9.578l22.256-29.02 6.717-35.79L441 221l-.07.316-9.229 40.438c-.557 1.293-14.505 15.495-28.744 29.93l-8.545 8.711-3.096 8.008c-.93 2.257-2.648 4.102-3.674 5.203-.395.424-.706.758-.834.961-.015.024-1.871 2.653-5.226 5.237-.947.73-1.528.934-1.883.658-.527-.408-.056-1.649.17-2.163l.043-.066c1.493-1.706 3.04-3.63 3.583-4.524-.304.272-.727.698-1.14 1.115-.98.989-2.322 2.342-3.894 3.583a238.92 238.92 0 0 1-2.288 1.783c-.688.528-1.4.81-1.956.81" class="C"/><path d="M408.953 477l-.183 12.49c.266 1.582 2.23 5.49 2.23 6.93 0 5.403-24.734-4.588-19.19-6.983.501-.217 3.13-1.856 3.295-3.695.254-2.834.9-8.567.9-8.567l12.948-.175z" class="B"/><path d="M396.363 477.684l-.85 8.126c-.18 1.999-2.953 3.638-3.365 3.817-.757.328-.647.716-.606.861.689 2.439 12.57 7.609 17.41 6.948 1.533-.21 1.533-.98 1.533-1.233 0-.737-.613-2.31-1.152-3.7-.463-1.188-.899-2.311-1.018-3.018-.005-.032-.008-.049.172-11.965l-12.124.164zM408.109 498c-5.239 0-16.292-4.641-17.063-7.373-.102-.36-.12-1.03.896-1.47.583-.252 2.915-1.801 3.058-3.393.244-2.735.87-8.306.876-8.362l.025-.224L409.01 477l-.004.264-.179 12.157c.115.655.538 1.745.986 2.897.584 1.501 1.187 3.053 1.187 3.885 0 .67-.343 1.517-1.978 1.74a6.71 6.71 0 0 1-.913.057z" class="C"/><path d="M391.346 488.231l8.686 2.15c2.943.43 6.82-3.19 8.903-2.213 2.29 1.077 2.058 11.675 2.058 11.675s-29.372.439-39.325-.151c-3.593-.213 7.934-7.455 19.678-11.46" class="D"/><path d="M462.953 477l.73 12.49 1.317 6.93c0 5.403-24.734-4.588-19.19-6.983.502-.217 3.91-3.08 4.074-4.919.255-2.834.12-7.343.12-7.343l12.949-.175z" class="B"/><path d="M450.396 477.683l-.124 6.933c-.175 1.953-3.665 4.812-4.124 5.01-.757.328-.647.716-.606.862.689 2.44 12.572 7.614 17.41 6.948 1.533-.21 1.533-.98 1.533-1.233 0-.891-.449-2.886-.81-4.488l-.47-2.23c-.003-.017-.007-.039-.7-11.966l-12.11.164zM462.109 498c-5.239 0-16.292-4.641-17.063-7.373-.102-.36-.12-1.03.896-1.47.398-.172 3.665-2.893 3.816-4.586.244-2.718.117-7.09.116-7.133l-.008-.26L462.99 477l.014.245.711 12.177c.086.504.269 1.319.463 2.181.385 1.712.821 3.652.821 4.6 0 .67-.343 1.517-1.977 1.74a6.717 6.717 0 0 1-.914.057z" class="C"/><path d="M446.383 488.234l8.597 2.176c2.913.436 6.752-3.23 8.812-2.24 2.267 1.09 2.208 11.665 2.208 11.665h-40.39c-3.56-.166 9.149-7.546 20.773-11.6" class="D"/><path d="M424.593 299l-10.18 4.327L393 404.077l.867 75.53 17.166.393 7.984-71.189c0-5.12 36.983-89.602 36.983-89.602L424.593 299z" class="B"/><path d="M394.389 479.091l16.794.381 8.006-70.707c0-5.025 34.679-83.617 37.158-89.229l-31.312-19.954-9.996 4.208-21.52 100.282.87 75.02zm17.251.909l-17.764-.403L393 404.02l.006-.028 21.582-100.573L425.085 299l.115.073L457 319.34l-.09.203c-.372.841-37.203 84.23-37.203 89.223 0 5.062-7.71 68.312-8.038 71.003l-.029.232z" class="C"/><path d="M432 304.368l7.503 90.506c0 13.056 6.083 86.126 6.083 86.126l17.215-.098 3.088-55.038c.289-5.132-.373-15.486 0-20.799 2.678-38.21 7.974-74.18 5.444-88.439-.407-2.295-1.172-8.296-2.662-9.81-11.273-11.46-36.671-2.448-36.671-2.448" class="B"/><path d="M432.558 303.809l7.573 90.572c0 12.558 5.745 81.467 6.133 86.098l16.93-.096 3.11-54.944c.138-2.435.06-5.993-.02-9.76-.088-4.076-.179-8.291.02-11.098.89-12.603 2.043-24.69 3.156-36.381 2.182-22.898 4.066-42.673 2.355-52.233l-.2-1.196c-.416-2.538-1.189-7.263-2.423-8.505-10.64-10.722-34.253-3.248-36.634-2.457zM445.784 481l-.02-.24-6.155-86.38c0-12.928-7.513-89.949-7.59-90.726l-.019-.201.192-.068c.065-.023 6.543-2.279 14.333-3.096 7.217-.755 17.074-.397 23.038 5.612 1.35 1.36 2.111 6.01 2.566 8.787l.199 1.187c1.724 9.63-.163 29.438-2.349 52.374l-3.156 36.368c-.196 2.783-.106 6.986-.018 11.05.081 3.778.158 7.346.019 9.801l-3.124 55.188-.014.243-17.902.101z" class="C"/><path d="m411 243 21.558-1.388s1.064-18.53 1.064-27.37c0-10.724 3.399-26.535 2.07-26.238-3.729.835-10.168 4.136-13.158 8.14C412.188 210 411 243 411 243" fill="#377da8"/><path d="M457.092 170.128L460 189.171s-10.618 22.675-16.958 20.708c-5.318-1.65-2.046-21.712-2.046-21.712s2.899-10.774 2.03-16.166 14.066-1.873 14.066-1.873" class="B"/><path d="M447.726 169.51c-1.984 0-3.752.267-4.617 1.067-.442.41-.603.934-.492 1.601.888 5.32-1.96 15.637-2.083 16.074-.002.024-.83 4.973-.984 10.054-.201 6.616.803 10.445 2.903 11.074 2.53.759 6.27-2.49 10.814-9.39 3.265-4.957 5.864-10.184 6.193-10.853l-2.935-18.553c-.906-.195-5.205-1.075-8.799-1.075M443.193 210a3.09 3.09 0 0 1-.892-.128c-5.597-1.676-2.413-20.912-2.275-21.73.035-.132 2.947-10.673 2.077-15.88-.14-.838.078-1.531.65-2.06 2.812-2.601 13.602-.186 14.06-.082l.172.039L460 189.216l-.035.071c-.428.882-10.131 20.713-16.772 20.713" class="C"/><path d="M457.613 171.239l-.773.761a14.806 14.806 0 0 1-.106-3.912c.13-1.217.387-2.526.862-3.65.885-.792 1.502-2.356 1.532-4.166.044-2.633-1.17-4.789-2.716-4.813-.963-.017-1.827.799-2.353 2.054a6.052 6.052 0 0 1-.814-1.176c-1.007-1.999-1.054-6.576-2.638-9.884l-1.892-2.523s-4.364-3.339-8.637-2.396a.62.62 0 0 1-.078.014 10.232 10.232 0 0 1 1.753-1.574c8.725-6.106 18.094 3.901 18.094 3.901.42-.15 3.378 21.43-2.234 27.364" class="B"/><path d="M457.523 164.026c-.4.97-.677 2.165-.823 3.551a14.58 14.58 0 0 0 .035 3.384l.408-.417c2.825-2.998 3.368-10.021 3.327-15.385-.047-6.072-.835-11.196-1.067-11.8l-.018-.02c-.093-.099-9.358-9.845-17.832-3.894a9.587 9.587 0 0 0-1.182.986c4.112-.497 8.006 2.447 8.179 2.58l.05.049 1.925 2.585c.893 1.872 1.304 4.122 1.666 6.106.292 1.597.544 2.977.98 3.844a5.14 5.14 0 0 0 .529.821c.596-1.18 1.487-1.86 2.427-1.846.573.01 1.125.275 1.597.77.894.936 1.41 2.56 1.38 4.341-.03 1.805-.635 3.462-1.58 4.345zm-1.15 7.974l-.074-.47a15.224 15.224 0 0 1-.107-4.009c.154-1.461.451-2.724.883-3.75l.023-.054.043-.039c.867-.779 1.424-2.313 1.452-4.005.028-1.624-.446-3.146-1.236-3.973-.375-.394-.804-.605-1.239-.612h-.025c-.815 0-1.597.712-2.098 1.91l-.16.383-.268-.314a6.335 6.335 0 0 1-.851-1.236c-.47-.935-.728-2.349-1.027-3.985-.355-1.944-.757-4.147-1.613-5.952l-1.862-2.491c-.373-.276-4.485-3.222-8.434-2.347a.722.722 0 0 1-.101.017l-.679.084.458-.514a10.567 10.567 0 0 1 1.804-1.624c8.542-5.997 17.761 3.21 18.453 3.922a.318.318 0 0 1 .103.103c.476.747 3.429 21.773-2.306 27.858a15.02 15.02 0 0 1-.79.78l-.349.318z" class="C"/><path d="M464.6 165.974c-6.273 4.663-6.19 10.026-6.19 10.026l-.99-2.762a16.07 16.07 0 0 1-.678-2.663 14.427 14.427 0 0 1-.108-3.9c.132-1.213.395-2.52.88-3.64.903-.79 1.533-2.349 1.564-4.153.045-2.626-1.194-4.776-2.772-4.8-.983-.017-1.866.797-2.402 2.048a6.033 6.033 0 0 1-.83-1.173c-1.029-1.992-1.077-6.556-2.694-9.854l-1.93-2.516s-4.455-3.33-8.816-2.39a.646.646 0 0 1-.08.014c-4.27.728-3.595-14.797 5.182-13.078 6.88 1.35 11.338 5.39 12.975 7.11 3.125.355 7.372 2.013 11.76 8.99 5.392 8.576 1.409 18.079-4.87 22.741" class="D"/><path d="M456.483 166.958a14.348 14.348 0 0 0 .11 3.946c-6.081 5.381-16.748 6.976-20.685 2.466-4.233-4.842-4.336-25.336 2.993-33.187a.676.676 0 0 0 .081-.014c4.49-.95 9.075 2.418 9.075 2.418l1.988 2.545c1.664 3.337 1.714 7.954 2.772 9.97.214.405.51.8.855 1.187.553-1.266 1.461-2.089 2.473-2.072 1.625.024 2.9 2.2 2.854 4.856-.032 1.826-.68 3.403-1.61 4.202-.5 1.134-.77 2.455-.906 3.683" class="B"/><path d="M439.185 140.673c-3.148 3.445-5.182 9.723-5.585 17.246-.36 6.725.733 12.78 2.72 15.067 1.26 1.453 3.315 2.308 5.944 2.474 4.653.29 10.193-1.648 13.837-4.836a14.458 14.458 0 0 1-.088-3.82c.158-1.444.463-2.69.906-3.704l.023-.053.044-.038c.89-.77 1.46-2.285 1.49-3.956.027-1.602-.459-3.105-1.268-3.922-.385-.389-.824-.598-1.27-.604h-.026c-.836 0-1.638.702-2.151 1.886l-.164.378-.275-.31c-.383-.433-.669-.832-.873-1.22-.481-.923-.746-2.32-1.052-3.936-.364-1.919-.776-4.093-1.654-5.876l-1.909-2.46c-.383-.272-4.599-3.18-8.647-2.317h-.002M443.197 176c-.326 0-.648-.01-.967-.03-2.774-.175-4.956-1.092-6.31-2.653-4.318-4.972-4.25-25.304 2.937-33.053l.066-.07.097-.011a.42.42 0 0 0 .047-.008c4.47-.952 8.924 2.288 9.111 2.427l.05.05 1.975 2.551c.916 1.85 1.337 4.07 1.708 6.03.3 1.576.558 2.938 1.004 3.795.137.26.316.527.543.81.612-1.165 1.525-1.836 2.488-1.823.588.01 1.154.272 1.638.76.916.925 1.445 2.527 1.415 4.287-.031 1.782-.651 3.418-1.62 4.29-.412.958-.696 2.137-.846 3.506-.14 1.245-.104 2.53.107 3.823l.022.136-.104.093c-3.494 3.11-8.747 5.09-13.36 5.09" class="C"/><path d="M494 249.31 476.75 252c-.154-4.584-.418-10.364-.834-15.37-.465-5.587-1.12-10.209-2.042-11.117-2.595-2.57 1.028-28.627 5.123-28.513a6.043 6.043 0 0 1 2.37.559c10.619 4.875 12.598 40.159 12.633 51.75" fill="#f7a491"/><path d="M469.29 275.22l-33.285-7.015c-2.403-.516-13.844-.886-19.205-1.205-.321 3.815-.51 6.584-.51 7.738 0 6.66-5.29 32.015-5.29 32.015 16.758 6.374 61 3.683 61 3.683s-3.19-21.321-3.169-30.003c.004-1.174.166-2.96.459-5.213" class="E"/><g transform="translate(417 188)"><mask id="E" class="B"><use xlink:href="#A"/></mask><path d="M71.205 12.888c-7.282-7.936-14.331-9.512-14.331-9.512C52.258 1.693 43.886.56 43.886.56S26.672-.877 18.509.851 7.937 9.584 6.618 13.481C5.566 16.59 1.932 49.606 0 70.221c3.328.089 7.202-.456 7.202-.456s2.402-2.242 1.03-3.139-6.349.449-4.803-1.196 7.376-2.242 8.577-1.045c1.146 1.138 9.152 6.353 9.897 6.839l.003-.014 32.705.79 3.526-18.556.996 10.675.773-.12 17.054-2.677 5.04-.79s-4.174-40.425-10.795-47.644" mask="url(#E)" class="E"/></g><path d="m429.977 257.971-.281 1.698c-.145.873-.939 1.458-1.774 1.307l-33.648-6.092c-.836-.151-1.396-.982-1.251-1.855l.281-1.698c.145-.873.94-1.458 1.774-1.307l33.648 6.092c.836.151 1.397.982 1.251 1.855" class="D"/><path d="M493 250v.297c0 11.746-2.49 27.074-4.98 27.672-1.125.27-9.616-1.277-19.474-3.24l-33.293-6.985c-2.404-.514-13.848-.882-19.211-1.2-1.466-.088-2.477-.172-2.728-.253-1.19-.389-8.81-5.968-9.544-6.458s-1.304-2.145.055-2.588c.745-.24 2.915 1.142 4.725 2.443-1.452-1.247-4.028-4.224-3.676-5.207.68-1.906 5.677 1.318 7.546 3.223.69.7 2.418.964 4.329 1.014 3.297.088 7.136-.446 7.136-.446s2.38-2.196 1.02-3.075-6.29.44-4.759-1.172 7.309-2.197 8.498-1.024c1.135 1.115 9.068 6.224 9.806 6.7l.004-.013 32.403.774 5.46.132-.214-7.972L493 250z" class="B"/><path d="M404.29 256.888a.38.38 0 0 0-.119.015c-.376.124-.592.364-.64.714-.077.553.28 1.212.649 1.457l1.33.953 8.201 5.575c.142.045.722.126 2.677.244l5.879.297c5.502.259 11.739.552 13.473.927l33.468 7.093c14.927 3.003 18.823 3.45 19.463 3.293 2.202-.534 4.809-15.632 4.809-27.853l-16.46 2.58.208 7.873.004.268-5.76-.14-32.369-.782-.039.152-.379-.232c-2.615-1.704-8.807-5.779-9.828-6.792-.368-.366-1.37-.571-2.683-.55-1.97.034-4.562.6-5.486 1.583-.222.237-.224.33-.224.33.134.143 1.162.118 1.842.102 1.209-.03 2.46-.06 3.12.37.318.207.503.504.533.857.098 1.12-1.358 2.512-1.524 2.667l-.06.056-.082.012c-.039.005-3.918.545-7.218.455-2.35-.063-3.875-.435-4.531-1.107-1.65-1.7-5.307-4.065-6.696-3.762a.571.571 0 0 0-.458.393c-.275.776 2.03 3.63 3.622 5.01l-.326.402c-2.987-2.169-4.045-2.46-4.397-2.46M488.346 278c-1.068 0-4.71-.41-19.242-3.333l-33.476-7.094c-1.69-.366-7.904-.658-13.386-.916l-5.886-.297c-2.156-.13-2.633-.213-2.808-.27-.858-.283-4.518-2.881-8.346-5.648a91.896 91.896 0 0 0-1.314-.942c-.502-.334-.98-1.177-.873-1.953.075-.544.428-.947.993-1.133.204-.066.735-.238 2.866 1.08-1.157-1.34-2.253-2.942-1.975-3.728.136-.386.426-.637.838-.726 1.737-.373 5.637 2.316 7.181 3.907.384.393 1.419.877 4.171.95 2.99.083 6.47-.362 7.048-.439.434-.421 1.366-1.486 1.304-2.192-.017-.199-.113-.349-.302-.472-.523-.342-1.797-.31-2.82-.285-1.23.03-2.119.052-2.333-.418-.147-.325.113-.656.322-.878 1.031-1.1 3.727-1.711 5.857-1.747.864-.015 2.414.057 3.06.701 1.012 1.004 7.688 5.384 9.733 6.717l37.745.912-.21-7.823-.008-.227.227-.036L494 249v.603c0 11.941-2.45 27.685-5.205 28.353-.075.018-.181.044-.449.044" class="C"/><path d="M188.964 243.45a6.205 6.205 0 0 1 4.8-1.653c18.848 1.697 54.016-7.39 77-30.926 1.596-1.634 4.505-.71 6.334.658 25.562 19.12 67.933 23.079 82.642 23.889a6.208 6.208 0 0 1 5.825 5.563c13.377 129.299-70.74 176.152-88.186 184.422a6.216 6.216 0 0 1-5.944-.343c-86.95-54.204-83.23-124.695-84.435-176.925a6.23 6.23 0 0 1 1.964-4.684" class="B"/><path d="M192.487 242.208c-1.507 0-2.97.57-4.079 1.604a5.948 5.948 0 0 0-1.887 4.479l.17 8.677c.452 25.618.965 54.655 11.656 83.799 12.371 33.723 36.157 61.138 72.715 83.812a5.966 5.966 0 0 0 5.711.33c9.662-4.557 34.43-18.224 55.706-46.635 12.185-16.273 21.23-34.838 26.883-55.178 6.86-24.686 8.775-52.245 5.69-81.91a5.923 5.923 0 0 0-5.598-5.318c-7.196-.394-21.625-1.577-37.393-5.072-19.217-4.259-34.563-10.588-45.613-18.81-1.552-1.156-4.432-2.29-6.01-.684-13.247 13.497-29.204 21.006-40.258 24.93-13.142 4.663-27.033 6.904-37.16 6a5.998 5.998 0 0 0-.533-.024M274.218 426c-1.192 0-2.379-.33-3.43-.981-36.661-22.738-60.516-50.24-72.929-84.075-10.721-29.226-11.234-58.308-11.687-83.967l-.17-8.674a6.467 6.467 0 0 1 2.051-4.868 6.52 6.52 0 0 1 5.013-1.718c10.056.9 23.865-1.332 36.94-5.973 11.002-3.905 26.883-11.377 40.06-24.803 1.62-1.65 4.593-.932 6.693.63 10.99 8.179 26.27 14.477 45.414 18.72 15.733 3.487 30.129 4.668 37.31 5.06a6.44 6.44 0 0 1 6.085 5.782c3.091 29.73 1.172 57.352-5.706 82.1-5.67 20.403-14.743 39.025-26.967 55.35-21.345 28.504-46.203 42.22-55.9 46.793a6.503 6.503 0 0 1-2.777.624" class="C"/><path d="M274.07 223.414a.429.429 0 0 0-.287.11c-23.19 20.63-54.827 29.864-75.895 29.864a.458.458 0 0 0-.335.13.408.408 0 0 0-.12.3l.06 3.324c.438 24.797.935 52.903 11.049 80.391 11.302 30.716 32.948 55.898 66.174 76.984.131.083.296.093.431.023 8.638-4.408 30.743-17.34 49.4-42.18 25.004-33.294 35.447-75.5 31.037-125.446a.428.428 0 0 0-.395-.39c-19.287-1.41-55.442-6.28-80.88-23.037a.433.433 0 0 0-.24-.073M274.954 417c-.54 0-1.08-.15-1.549-.449-33.692-21.382-55.656-46.957-67.148-78.189-10.253-27.87-10.755-56.19-11.196-81.177l-.06-3.322a2.803 2.803 0 0 1 .816-2.036 2.866 2.866 0 0 1 2.054-.854c20.621 0 51.577-9.043 74.29-29.248a2.879 2.879 0 0 1 3.493-.25c24.976 16.452 60.664 21.247 79.714 22.64a2.841 2.841 0 0 1 2.64 2.588c4.463 50.554-6.14 93.316-31.511 127.1-18.96 25.245-41.449 38.4-50.238 42.885a2.88 2.88 0 0 1-1.305.312" class="E"/><path d="M372.896 286.98c6.915 20.101-3.775 42.002-23.876 48.916s-42.002-3.775-48.916-23.876 3.775-42.002 23.876-48.917 42.002 3.776 48.916 23.877" fill="#f4c338"/><path d="M367.252 287.594c5.747 16.708-3.138 34.91-19.846 40.658s-34.91-3.138-40.658-19.846 3.138-34.91 19.846-40.657 34.91 3.137 40.658 19.845" fill="#faa928"/><path d="M326.984 298.503l2.23.068c.77 0 1.525-.057 2.265-.169s1.444-.294 2.116-.549a6.205 6.205 0 0 0 1.807-1.052 5.286 5.286 0 0 0 1.315-1.692c.343-.68.56-1.497.652-2.453H326c.046-.105.172-.325.378-.66l.651-1.065.915-1.412h8.853c0-.388-.19-.78-.572-1.176a6.286 6.286 0 0 0-1.384-1.064 10.078 10.078 0 0 0-1.658-.773c-.564-.202-1.03-.302-1.395-.302H326c.06-.18.194-.448.4-.807l.652-1.064.606-.93.286-.403H347l-.458.84-.457.762-.469.773-.515.829h-5.01c.32.537.599 1.079.835 1.624s.385 1.109.446 1.691H347l-1.899 3.137h-3.523c-.183 1.389-.583 2.576-1.2 3.562a8.726 8.726 0 0 1-2.265 2.453c-.892.65-1.888 1.15-2.985 1.501a17.855 17.855 0 0 1-3.386.728c0 .015.026.064.08.146l.194.28a4.49 4.49 0 0 0 .275.381l10.156 13.733v.56h-4.346l-11.117-14.54v-2.957z" class="B"/><g transform="translate(69)"><mask id="F" class="B"><use xlink:href="#B"/></mask><path d="M15.26 51 0 37.412C21.386 13.636 52.032 0 84.08 0c31.957 0 62.545 13.572 83.92 37.237l-15.232 13.62c-17.497-19.372-42.533-30.482-68.689-30.482-26.229 0-51.313 11.162-68.82 30.625" mask="url(#F)" class="F"/></g><path d="M166 110.5c0-7.456-6.044-13.5-13.5-13.5s-13.5 6.044-13.5 13.5 6.044 13.5 13.5 13.5 13.5-6.044 13.5-13.5m8.044-18.5a30.22 30.22 0 0 0-22.112-9.482c-8.403 0-16.227 3.337-22.03 9.396L115 77.75C124.728 67.594 137.844 62 151.932 62 165.889 62 179.4 67.793 189 77.892L174.044 92zm-65.997-21L93 57.093C108.491 39.875 130.554 30 153.532 30c22.942 0 44.982 9.849 60.468 27.021l-15.03 13.926c-11.639-12.905-28.2-20.307-45.438-20.307-17.265 0-33.844 7.42-45.485 20.36" class="F"/><path d="M267.89 123h-35.78c-1.717 0-3.11-1.343-3.11-3s1.393-3 3.11-3h35.78c1.717 0 3.11 1.343 3.11 3s-1.393 3-3.11 3M250.5 489c-5.799 0-10.5-4.701-10.5-10.5s4.701-10.5 10.5-10.5a10.5 10.5 0 1 1 0 21z" class="E"/><path d="M83 213.315l1.85-8.237s6.057 3.76 9.59 9.132 5.215 19.696 6.224 20.233 12.187-16.313 14.142-18.97c2.417-3.285 3.32-7.056 4.834-9.92s6.845-3.84 8.863-3.482-2.773 8.737-2.773 8.737-12.112 20.59-16.15 31.871-16.654 16.652-18.673 15.04S83 213.315 83 213.315" class="B"/><path d="M83.53 212.68c2.387 17.31 6.453 43.433 7.888 44.578.414.33 1.474.297 2.835-.084 4.41-1.239 12.55-6.4 15.624-14.972 4.041-11.272 16.217-31.985 16.34-32.193 1.503-2.625 3.703-7.193 3.197-8.262a.269.269 0 0 0-.216-.165c-1.924-.34-7.197.58-8.678 3.377-.55 1.038-1.019 2.196-1.516 3.422-.892 2.203-1.815 4.482-3.39 6.617-.456.62-1.418 2.015-2.637 3.782-9.408 13.65-11.3 15.79-11.987 15.429-.454-.242-.796-1.64-1.658-5.576-1.073-4.898-2.543-11.605-4.727-14.92-3.039-4.612-8.01-8.08-9.297-8.931l-1.777 7.898zM92.38 258c-.566 0-1.005-.113-1.288-.338-2.062-1.643-7.474-40.53-8.085-44.959l-.006-.046 1.96-8.711.314.194c.061.038 6.21 3.886 9.77 9.29 2.236 3.394 3.717 10.156 4.799 15.093.515 2.352 1.047 4.781 1.365 5.193 1.211-.537 8.289-10.805 11.338-15.228l2.646-3.796c1.536-2.083 2.446-4.33 3.327-6.504.501-1.239.975-2.408 1.538-3.47 1.661-3.138 7.296-3.99 9.233-3.647a.79.79 0 0 1 .598.456c.787 1.662-2.806 8.02-3.218 8.74-.124.211-12.275 20.883-16.3 32.108-3.162 8.82-11.286 13.98-15.974 15.297-.779.219-1.46.328-2.017.328z" class="C"/><path d="M129.165 203s1.06 8.254.792 9.983c-.269 1.736-.945.805-1.072.429-.521-1.552-.885-6.847-.885-6.847l1.165-3.565z" class="B"/><path d="M127.624 206.417c.083.665.67 5.226 1.457 6.597.095.164.446.462.707.432.217-.025.415-.314.542-.793.316-1.194-.552-6.012-1.175-8.975l-1.53 2.739zm2.129 7.583c-.557 0-1.057-.462-1.211-.731-.9-1.564-1.507-6.658-1.532-6.874l-.01-.082 2.411-4.313.172.782c.074.336 1.802 8.25 1.338 10-.198.747-.554 1.155-1.059 1.212a1.003 1.003 0 0 1-.11.006z" class="C"/><path d="M126 209.377s.518 4.877 1.052 5.452c.346.373.788.153.932-.832S127.29 207 127.29 207l-1.29 2.377z" class="B"/><path d="M125.654 209.764c.362 1.78 1.09 4.34 1.628 4.651.125.072.317.145.525.085.253-.074.455-.326.554-.691.155-.569-.494-3.543-1.036-5.693l-1.671 1.648zM127.65 215c-.253 0-.51-.069-.74-.201-.95-.549-1.742-4.315-1.89-5.065l-.021-.102 2.67-2.632.132.51c.146.559 1.413 5.488 1.166 6.397-.146.536-.48.906-.942 1.04a1.35 1.35 0 0 1-.375.053z" class="C"/><path d="M120.668 223 118 221.782 129.332 200c1.473.673 2.085 2.338 1.367 3.718L120.668 223z" class="D"/><g transform="translate(0 147)"><mask id="G" class="B"><use xlink:href="#C"/></mask><path d="M93.004 24.13c-.758 1.455-1.873 2.457-2.876 2.72l-.073.539c-1.349 9.525-10.441 18.507-19.648 10.572-3.194-2.754-4.801-6.312-5.377-9.982-1.439-.069-2.832-1.696-3.243-3.914a6.489 6.489 0 0 1-.017-2.363c.262-1.41 1.024-2.47 2.083-2.685.497-.1 1-.003 1.477.26.155.082.307.186.452.304 5.212-.66 12.3-12.47 13.363-14.283 8.744.425 11.228 7.08 11.431 14.214.81-.58 1.649-.76 2.287-.398 1.176.667 1.238 2.916.141 5.017m.421-13.637C90.186 4.434 84.581.948 78.1.188c-18.371-2.152-14.446 14.777-40.123 18.44-7.979 1.14-19.424.182-26.085 4.1C-.137 29.8-3.707 46.933 4.271 65.413c19.53 45.252 70.541 3.096 76.464-5.815 4.405-6.63 12.711-23.558 13.687-27.946 1.521-6.813 3.008-13.671-.997-21.158" mask="url(#G)" class="D"/></g><path d="M19.763 464s-1.294 13.14-4.621 15.554-7.763 11.34-5.545 16.166c.693 1.508 2.08 2.38 3.658 2.865 4.673 1.44 9.646-.984 11.636-5.452 1.112-2.496 2.087-5.825 2.283-10.02.5-10.677 3.826-16.106 3.826-16.106L19.763 464z" class="B"/><path d="M21.409 464.646c-.224 2.002-1.583 12.945-4.769 15.182-3.196 2.245-7.78 10.876-5.547 15.583.596 1.255 1.792 2.157 3.555 2.682 4.563 1.361 9.51-.884 11.505-5.223 1.353-2.94 2.125-6.224 2.295-9.761.44-9.081 3.055-14.396 3.754-15.666l-10.793-2.797zM17.36 499c-.952 0-1.915-.135-2.863-.418-1.91-.569-3.214-1.563-3.875-2.955-2.332-4.914 2.404-13.888 5.716-16.215 3.245-2.28 4.573-14.986 4.585-15.114l.03-.298L33 467.122l-.185.293c-.034.054-3.35 5.417-3.847 15.718-.174 3.602-.961 6.95-2.341 9.948-1.688 3.67-5.384 5.919-9.267 5.919z" class="C"/><path d="M71.946 470s1.055 13.26.198 17.57c-.458 2.308-3.01 7.058-1.84 9.23s2.51 2.715 2.51 2.715l30.35.485c1.654.026.562-1.03-.771-2.002-2.182-1.593-3.943-2.645-10.913-5.991-.454-.219-2.11-1.262-2.707-1.624-1.513-.918-3.032-2.361-4.34-3.808-2.18-2.407-2.37-14.084-2.37-14.084L71.946 470z" class="B"/><path d="M73.175 499.016l30.719.474c.502.012.586-.086.586-.087s.014-.328-1.526-1.415c-2.109-1.488-3.789-2.491-11.024-5.85-.357-.166-1.39-.783-2.144-1.234l-.623-.37c-1.358-.797-2.859-2.068-4.46-3.78-2.114-2.259-2.43-12.2-2.466-13.78l-9.713-2.312c.168 2.146.965 13.073.17 16.946-.145.705-.49 1.635-.855 2.619-.806 2.173-1.81 4.876-1.038 6.259 1.01 1.81 2.15 2.423 2.374 2.53m30.782.984h-.071l-30.822-.477-.045-.017c-.06-.024-1.458-.592-2.677-2.777-.883-1.583.12-4.289 1.006-6.676.358-.965.696-1.878.834-2.545.85-4.142-.195-17.027-.206-17.157l-.029-.351 10.804 2.572.004.196c.001.114.216 11.38 2.334 13.643 1.566 1.675 3.028 2.915 4.343 3.686l.626.373c.703.42 1.764 1.053 2.097 1.209 6.872 3.19 8.8 4.27 11.105 5.897 1.699 1.198 1.818 1.681 1.712 1.995-.128.374-.622.429-1.015.429" class="C"/><path d="M95.775 294.329s3.926 21.569 1.348 35.71-14.948 145.21-14.948 145.21L68.428 476l-2.366-62.365c.515-7.614 4.595-20.356 4.595-20.356l-1.368-44.206L86.636 291l9.139 3.329z" class="B"/><path d="M69.757 349.254l1.346 44.062-.013.042c-.04.127-4.011 12.757-4.51 20.228-.483 7.219 2.103 57.766 2.315 61.868l13.042-.722 14.692-144.529c2.39-13.282-.972-33.44-1.302-35.354l-8.59-3.17-16.98 57.575zM68.402 476l-.013-.26c-.029-.546-2.83-54.671-2.329-62.188.49-7.315 4.265-19.493 4.52-20.308l-1.346-44.056.012-.04L86.394 291l9.393 3.466.027.146c.038.215 3.842 21.705 1.327 35.683-2.505 13.922-14.585 143.401-14.707 144.708l-.02.222-14.012.775z" class="C"/><path d="M56.913 289.883s-10.664 15.732-13.204 28.753 1.864 53.036-3.02 70.098c-2.644 9.236-12.665 23.5-14.19 35.436S19 467.37 19 467.37L32.537 470 64 391.92l24.679-70.573L95 285l-38.087 4.883z" class="B"/><path d="m19.603 466.862 12.966 2.545 31.127-78.05 24.468-70.694 6.207-36.057-37.314 4.834c-.89 1.35-10.615 16.305-12.993 28.622-1.057 5.478-.89 16.005-.714 27.15.245 15.561.524 33.2-2.287 43.121-1.054 3.719-3.289 8.262-5.655 13.072-3.52 7.153-7.509 15.26-8.411 22.402-1.423 11.263-6.826 40.04-7.394 43.055zM32.89 470 19 467.273l.048-.254c.06-.313 5.943-31.46 7.436-43.278.914-7.228 4.923-15.378 8.46-22.567 2.357-4.788 4.582-9.31 5.622-12.984 2.79-9.847 2.512-27.445 2.267-42.97-.177-11.172-.343-21.725.724-27.257 2.5-12.952 13.03-28.754 13.136-28.912l.066-.097.115-.015L95 284l-6.341 36.814L64.18 391.54 32.89 470z" class="C"/><path d="M65.137 200s-8.138 2.304-13.766 8.289 7.826 52.83 8.85 60.447-8.386 25.386-8.386 25.386 35.159 6.35 44.71.185c0 0 1.024-54.771 0-60.212s-9.551-27.567-11.598-29.743S65.137 200 65.137 200" fill="#f7b2be"/><path d="M51.83 212.062c.899-2.663 4.77-4.881 7.398-3.768 3.599 1.526 7.775 5.356 10.202 10.317 4.055 8.29 18.25 36.76 22.643 37.842s22.304-29.553 22.304-29.553-.506-5.406 1.014-8.47 6.084-6.306 6.76-5.225-2.535 3.784-2.535 4.325 1.352.9 3.21-.18 2.866-3.268 2.866-3.268 3.048 5.43-.162 10.295l-4.562 6.848s-20.784 45.23-28.388 45.77c-7.082.505-47.867-43.843-40.75-64.933" class="B"/><path d="M52.331 211.436c-4.453 13.377 10.208 34.532 16.717 43.007 4.605 5.994 9.656 11.625 14.222 15.853 4.36 4.038 7.736 6.297 9.275 6.18 7.315-.528 27.775-45.482 27.98-45.935l.022-.039c.014-.02 1.379-2.05 4.53-6.891 2.545-3.91.985-8.258.368-9.646-.408.727-1.323 2.12-2.708 2.937-1.512.892-2.667.85-3.196.545-.246-.143-.381-.351-.381-.589 0-.275.286-.622.933-1.379.733-.857 1.96-2.293 1.624-2.837-.042-.067-.136-.098-.285-.09-1.268.062-4.7 2.72-5.979 5.33-1.46 2.981-.986 8.334-.981 8.388l.008.083-.042.071c-1.795 3.113-17.392 29.91-22.17 29.912-.094 0-.184-.01-.27-.032-4.314-1.077-17.285-27.103-22.662-38.243-2.206-4.57-6.132-8.6-10.003-10.262-1.03-.444-2.334-.354-3.67.25-1.577.715-2.885 2.044-3.332 3.387M92.449 277c-3.66 0-14.471-10.082-23.809-22.238-4.237-5.516-10.089-13.946-13.904-22.787-3.667-8.494-4.64-15.46-2.895-20.705.499-1.497 1.882-2.913 3.61-3.696 1.469-.665 2.919-.756 4.085-.254 3.978 1.71 8.007 5.836 10.264 10.514 13.108 27.154 20.125 37.416 22.322 37.964a.81.81 0 0 0 .2.023c3.336 0 14.659-17.511 21.628-29.587-.06-.728-.4-5.642 1.04-8.583 1.285-2.624 4.865-5.543 6.417-5.62.438-.027.646.171.748.336.536.87-.687 2.302-1.67 3.452-.347.405-.777.908-.81 1.055.001.025.047.077.123.121.307.178 1.262.293 2.678-.543 1.756-1.035 2.733-3.153 2.743-3.174l.212-.466.248.448c.031.056 3.066 5.663-.17 10.636l-4.522 6.88c-.968 2.135-20.812 45.672-28.405 46.22a1.834 1.834 0 0 1-.133.004" class="C"/><path d="M70.235 181.31l-.207 1.105c-.636 3.341-3.087 14.425-4.742 17.471-2 3.683 6.85 15.426 15.368 13.993 2.536-.426-2.144-10.79-1.919-11.888a6614.952 6614.952 0 0 0 2.61-12.828L83 181l-12.765.31z" class="B"/><path d="M69.847 181.845l-.173.911c-.673 3.509-3.181 14.7-4.876 17.794-.732 1.337.098 3.982 2.114 6.739 3.013 4.12 8.299 7.9 13.315 7.066a.492.492 0 0 0 .358-.246c.712-1.158-.692-5.374-1.622-8.164-.66-1.98-1-3.033-.916-3.438l1.647-8.02 1.021-4.988 1.625-7.955-12.493.3zM78.804 215c-4.762 0-9.517-3.557-12.33-7.403-2.167-2.964-2.991-5.76-2.15-7.297 1.665-3.04 4.151-14.153 4.821-17.641l.211-1.12.039-.212L83 181l-.066.324-1.691 8.279-1.021 4.99a6708.4 6708.4 0 0 1-1.648 8.02c-.059.286.451 1.817.901 3.167 1.319 3.96 2.348 7.34 1.572 8.602-.167.272-.42.442-.73.494a9.188 9.188 0 0 1-1.513.124z" class="C"/><path d="M93.195 170.984c-.78 1.466-1.924 2.476-2.956 2.74l-.074.544c-1.386 9.602-10.728 18.657-20.188 10.657-3.281-2.776-4.933-6.363-5.525-10.061-1.478-.07-2.91-1.71-3.331-3.946a6.42 6.42 0 0 1-.018-2.382c.27-1.421 1.052-2.49 2.14-2.706.51-.101 1.028-.004 1.517.26a3.01 3.01 0 0 1 .465.307c5.355-.665 12.638-12.569 13.73-14.397 8.984.428 11.536 7.136 11.745 14.328.833-.585 1.694-.766 2.35-.4 1.208.671 1.272 2.939.145 5.056" class="B"/><path d="M63.863 166.112a1.71 1.71 0 0 0-.342.034c-.92.182-1.649 1.126-1.901 2.461a6.104 6.104 0 0 0 .017 2.253c.383 2.034 1.687 3.615 3.034 3.68l.212.01.033.206c.642 4.013 2.441 7.297 5.35 9.76 3.343 2.832 6.923 3.659 10.35 2.39 4.508-1.668 8.243-6.904 9.083-12.733l.026-.18.046-.348.02-.176.174-.044c.984-.253 2.035-1.238 2.743-2.572 1.027-1.931 1.008-4.056-.04-4.64-.529-.294-1.269-.156-2.031.38l-.4.282-.014-.483c-.255-8.793-4.006-13.456-11.15-13.862-1.534 2.555-8.405 13.53-13.622 14.178l-.11.014-.087-.07a2.673 2.673 0 0 0-.416-.274 2.038 2.038 0 0 0-.975-.266M77.438 188c-2.161 0-4.742-.746-7.514-3.094-2.957-2.504-4.804-5.825-5.492-9.873-1.524-.21-2.895-1.881-3.31-4.079a6.608 6.608 0 0 1-.017-2.441c.297-1.57 1.162-2.643 2.312-2.872.549-.11 1.126-.01 1.67.284.134.07.27.157.405.258 5.172-.794 12.398-12.686 13.21-14.049l.08-.134.159.008c7.442.355 11.406 5.037 11.789 13.918.801-.44 1.584-.502 2.196-.16 1.331.74 1.439 3.08.245 5.326-.734 1.383-1.832 2.43-2.901 2.78l-.027.193-.026.178c-.865 6.01-4.738 11.414-9.416 13.145a9.677 9.677 0 0 1-3.363.612" class="C"/><path d="M27 490.9c-7.769 1.28-12.938-2.826-15.628-5.9-1.975 3.482-3.185 7.828-1.732 10.688 1.28 2.52 4.762 3.208 7.705 3.307 3.113.105 6.023-1.368 7.567-3.817A22.372 22.372 0 0 0 27 490.9m61.705-1.183c-7.97 2.176-13.862.697-17.158-.717-.85 2.563-1.977 5.78-1.38 7.633.732 2.27 1.775 2.97 2.695 2.996 7.28.203 26.668.294 32.22.371.775.01 1.202-.953.704-1.587-1.377-1.75-16.487-8.31-17.08-8.696" class="D"/><mask id="H" class="B"><use xlink:href="#D"/></mask><path fill="#606061" mask="url(#H)" d="M273 339h7v-40h-7zm-90.689-178.941h2.573c1.54 0 2.91-.336 2.91-2.248s-1.37-2.248-2.91-2.248h-2.573v4.496zM179 153h6.79c3.755 0 5.21 2.374 5.21 4.81s-1.455 4.812-5.21 4.812h-3.479V168H179v-15zm19.508 9.121c-.524.463-1.615.484-2.576.66-.96.199-1.833.529-1.833 1.674 0 1.167.895 1.453 1.899 1.453 2.423 0 2.51-1.937 2.51-2.62v-1.167zm-7.159-2.312c.175-2.928 2.772-3.809 5.304-3.809 2.248 0 4.954.506 4.954 3.237v5.923c0 1.035.11 2.07.393 2.532h-3.143a4.687 4.687 0 0 1-.218-1.101c-.982 1.035-2.423 1.409-3.798 1.409-2.139 0-3.841-1.079-3.841-3.413 0-2.576 1.92-3.192 3.841-3.457 1.899-.286 3.667-.22 3.667-1.497 0-1.343-.917-1.54-2.008-1.54-1.179 0-1.942.483-2.052 1.716h-3.099zm18.176 7.848c-.642 1.662-1.657 2.343-3.687 2.343a18.15 18.15 0 0 1-1.802-.1v-2.344l1.72.1c1.014-.1 1.346-1.121 1.014-1.942L203 156h3.149l2.424 7.09h.04l2.342-7.09H214l-4.475 11.657zm19.505-4.893c0-1.725-.69-3.513-2.593-3.513-1.945 0-2.572 1.746-2.572 3.513s.67 3.45 2.593 3.45c1.945 0 2.572-1.682 2.572-3.45zm-8.03-5.47h2.823v1.389h.042c.711-1.157 1.882-1.683 3.22-1.683 3.388 0 4.915 2.756 4.915 5.848 0 2.904-1.59 5.617-4.747 5.617-1.297 0-2.53-.567-3.241-1.64h-.043V172H221v-14.706zm12-.004h2.838v1.989h.042c.547-1.347 2.018-2.279 3.469-2.279.21 0 .462.041.651.104v2.734a5.526 5.526 0 0 0-1.072-.103c-2.186 0-2.943 1.553-2.943 3.438V168H233v-10.71zm15.955 3.488c-.278-1.585-.939-2.422-2.41-2.422-1.92 0-2.474 1.541-2.517 2.422h4.927zm-4.927 1.981c.085 1.983 1.024 2.885 2.709 2.885 1.215 0 2.196-.77 2.388-1.475h2.666c-.853 2.686-2.666 3.831-5.161 3.831-3.476 0-5.63-2.466-5.63-5.99 0-3.411 2.282-6.01 5.63-6.01 3.754 0 5.566 3.259 5.353 6.76h-7.955zM254 157.29h2.714v1.45h.04c.75-1.097 1.843-1.74 3.2-1.74 1.317 0 2.492.497 3.059 1.782.607-.933 1.701-1.782 3.16-1.782 2.227 0 3.827 1.057 3.827 3.833V168h-2.876v-6.07c0-1.429-.122-2.61-1.762-2.61-1.62 0-1.924 1.367-1.924 2.714V168h-2.876v-6.008c0-1.242.081-2.672-1.742-2.672-.567 0-1.944.373-1.944 2.465V168H254v-10.71zM272 168h3v-11h-3v11zm0-13h3v-2h-3v2zm16 12.71h-3.062v-1.491h-.068c-.817 1.2-2.223 1.781-3.583 1.781-3.425 0-4.287-1.76-4.287-4.412V157h3.22v6.05c0 1.76.567 2.63 2.064 2.63 1.747 0 2.495-.89 2.495-3.066V157H288v10.71zm2-10.42h2.714v1.45h.04c.75-1.097 1.843-1.74 3.2-1.74 1.317 0 2.492.497 3.059 1.782.607-.933 1.701-1.782 3.16-1.782 2.227 0 3.827 1.057 3.827 3.833V168h-2.876v-6.07c0-1.429-.121-2.61-1.762-2.61-1.62 0-1.924 1.367-1.924 2.714V168h-2.876v-6.008c0-1.242.081-2.672-1.742-2.672-.567 0-1.944.373-1.944 2.465V168H290v-10.71zm-103 33.063c2.812 0 3.869-2.407 3.869-4.793 0-2.506-1.057-4.913-3.87-4.913s-3.868 2.407-3.868 4.913c0 2.386 1.057 4.793 3.869 4.793M187 178c4.407 0 7 3.309 7 7.56 0 4.131-2.593 7.44-7 7.44s-7-3.309-7-7.44c0-4.251 2.593-7.56 7-7.56m8 4.29h3.062v1.492h.068c.816-1.202 2.223-1.782 3.583-1.782 3.425 0 4.287 1.76 4.287 4.412V193h-3.22v-6.049c0-1.761-.568-2.63-2.064-2.63-1.747 0-2.495.89-2.495 3.065V193H195v-10.71zM208 193h3v-15h-3zm5 0h3v-11h-3v11zm0-13h3v-2h-3v2zm5 2.29h3.062v1.492h.068c.817-1.202 2.223-1.782 3.583-1.782 3.425 0 4.287 1.76 4.287 4.412V193h-3.22v-6.049c0-1.761-.567-2.63-2.064-2.63-1.747 0-2.495.89-2.495 3.065V193H218v-10.71zm20.955 3.488c-.278-1.585-.939-2.422-2.41-2.422-1.92 0-2.474 1.541-2.517 2.422h4.927zm-4.927 1.981c.085 1.983 1.024 2.885 2.709 2.885 1.215 0 2.196-.77 2.388-1.475h2.666c-.853 2.686-2.666 3.831-5.161 3.831-3.476 0-5.63-2.466-5.63-5.99 0-3.411 2.282-6.01 5.63-6.01 3.754 0 5.566 3.259 5.353 6.76h-7.955z"/></g></svg>